<mxfile host="65bd71144e">
    <diagram id="QIlo2VJ6th3J74Fr_3Rs" name="admin">
        <mxGraphModel dx="893" dy="469" grid="1" gridSize="10" guides="1" tooltips="1" connect="1" arrows="1" fold="1" page="1" pageScale="1" pageWidth="850" pageHeight="1100" math="0" shadow="0">
            <root>
                <mxCell id="0"/>
                <mxCell id="1" parent="0"/>
                <mxCell id="3" value="" style="swimlane;whiteSpace=wrap;html=1;" vertex="1" parent="1">
                    <mxGeometry x="109" y="110" width="610" height="510" as="geometry"/>
                </mxCell>
                <mxCell id="4" value="Admin" style="swimlane;whiteSpace=wrap;html=1;startSize=23;" vertex="1" parent="3">
                    <mxGeometry width="210" height="510" as="geometry"/>
                </mxCell>
                <mxCell id="5" style="edgeStyle=orthogonalEdgeStyle;rounded=0;orthogonalLoop=1;jettySize=auto;html=1;exitX=0.5;exitY=1;exitDx=0;exitDy=0;entryX=0.5;entryY=0;entryDx=0;entryDy=0;" edge="1" parent="4" source="6" target="7">
                    <mxGeometry relative="1" as="geometry"/>
                </mxCell>
                <mxCell id="6" value="Start" style="rounded=1;whiteSpace=wrap;html=1;" vertex="1" parent="4">
                    <mxGeometry x="30" y="30" width="130" height="60" as="geometry"/>
                </mxCell>
                <mxCell id="7" value="Login" style="rounded=0;whiteSpace=wrap;html=1;" vertex="1" parent="4">
                    <mxGeometry x="35" y="110" width="120" height="60" as="geometry"/>
                </mxCell>
                <mxCell id="8" style="edgeStyle=orthogonalEdgeStyle;rounded=0;orthogonalLoop=1;jettySize=auto;html=1;exitX=0.5;exitY=0;exitDx=0;exitDy=0;entryX=0.5;entryY=1;entryDx=0;entryDy=0;" edge="1" parent="4" source="9" target="7">
                    <mxGeometry relative="1" as="geometry"/>
                </mxCell>
                <mxCell id="9" value="Error alert" style="rounded=0;whiteSpace=wrap;html=1;" vertex="1" parent="4">
                    <mxGeometry x="35" y="300" width="120" height="60" as="geometry"/>
                </mxCell>
                <mxCell id="10" value="Home Page" style="rounded=0;whiteSpace=wrap;html=1;" vertex="1" parent="4">
                    <mxGeometry x="35" y="380" width="120" height="60" as="geometry"/>
                </mxCell>
                <mxCell id="11" value="Web Server" style="swimlane;whiteSpace=wrap;html=1;startSize=23;" vertex="1" parent="3">
                    <mxGeometry x="210" width="200" height="510" as="geometry"/>
                </mxCell>
                <mxCell id="12" value="Send information for verification" style="rounded=0;whiteSpace=wrap;html=1;" vertex="1" parent="11">
                    <mxGeometry x="35" y="110" width="120" height="60" as="geometry"/>
                </mxCell>
                <mxCell id="13" value="Check information" style="rhombus;whiteSpace=wrap;html=1;" vertex="1" parent="11">
                    <mxGeometry x="62.5" y="280" width="75" height="80" as="geometry"/>
                </mxCell>
                <mxCell id="14" value="&amp;nbsp;not found" style="text;html=1;align=center;verticalAlign=middle;whiteSpace=wrap;rounded=0;" vertex="1" parent="11">
                    <mxGeometry x="-24" y="292" width="119" height="30" as="geometry"/>
                </mxCell>
                <mxCell id="15" value="correct" style="text;html=1;align=center;verticalAlign=middle;whiteSpace=wrap;rounded=0;" vertex="1" parent="11">
                    <mxGeometry x="81" y="356" width="100" height="30" as="geometry"/>
                </mxCell>
                <mxCell id="16" value="DataBase Server" style="swimlane;whiteSpace=wrap;html=1;startSize=23;" vertex="1" parent="3">
                    <mxGeometry x="410" width="200" height="510" as="geometry"/>
                </mxCell>
                <mxCell id="17" style="edgeStyle=orthogonalEdgeStyle;rounded=0;orthogonalLoop=1;jettySize=auto;html=1;exitX=0.5;exitY=1;exitDx=0;exitDy=0;entryX=0.5;entryY=0;entryDx=0;entryDy=0;" edge="1" parent="16" source="18">
                    <mxGeometry relative="1" as="geometry">
                        <mxPoint x="100.5" y="200" as="targetPoint"/>
                    </mxGeometry>
                </mxCell>
                <mxCell id="18" value="Receive requests&amp;nbsp;" style="rounded=0;whiteSpace=wrap;html=1;" vertex="1" parent="16">
                    <mxGeometry x="40" y="110" width="120" height="60" as="geometry"/>
                </mxCell>
                <mxCell id="19" value="Send information" style="rounded=0;whiteSpace=wrap;html=1;" vertex="1" parent="16">
                    <mxGeometry x="40" y="290" width="120" height="60" as="geometry"/>
                </mxCell>
                <mxCell id="20" style="edgeStyle=orthogonalEdgeStyle;rounded=0;orthogonalLoop=1;jettySize=auto;html=1;exitX=0.5;exitY=1;exitDx=0;exitDy=0;exitPerimeter=0;entryX=0.5;entryY=0;entryDx=0;entryDy=0;" edge="1" parent="16" source="21" target="19">
                    <mxGeometry relative="1" as="geometry"/>
                </mxCell>
                <mxCell id="21" value="Database" style="shape=cylinder3;whiteSpace=wrap;html=1;boundedLbl=1;backgroundOutline=1;size=15;" vertex="1" parent="16">
                    <mxGeometry x="72.5" y="200" width="55" height="60" as="geometry"/>
                </mxCell>
                <mxCell id="22" style="edgeStyle=orthogonalEdgeStyle;rounded=0;orthogonalLoop=1;jettySize=auto;html=1;exitX=1;exitY=0.5;exitDx=0;exitDy=0;entryX=0;entryY=0.5;entryDx=0;entryDy=0;" edge="1" parent="3" source="7" target="12">
                    <mxGeometry relative="1" as="geometry">
                        <mxPoint x="241" y="159.8571428571429" as="targetPoint"/>
                    </mxGeometry>
                </mxCell>
                <mxCell id="23" style="edgeStyle=orthogonalEdgeStyle;rounded=0;orthogonalLoop=1;jettySize=auto;html=1;exitX=1;exitY=0.5;exitDx=0;exitDy=0;entryX=0;entryY=0.5;entryDx=0;entryDy=0;" edge="1" parent="3" source="12" target="18">
                    <mxGeometry relative="1" as="geometry"/>
                </mxCell>
                <mxCell id="24" style="edgeStyle=orthogonalEdgeStyle;rounded=0;orthogonalLoop=1;jettySize=auto;html=1;exitX=0;exitY=0.5;exitDx=0;exitDy=0;entryX=1.011;entryY=0.336;entryDx=0;entryDy=0;entryPerimeter=0;" edge="1" parent="3" source="13" target="9">
                    <mxGeometry relative="1" as="geometry"/>
                </mxCell>
                <mxCell id="25" style="edgeStyle=orthogonalEdgeStyle;rounded=0;orthogonalLoop=1;jettySize=auto;html=1;exitX=0.5;exitY=1;exitDx=0;exitDy=0;entryX=1;entryY=0.5;entryDx=0;entryDy=0;" edge="1" parent="3" source="13" target="10">
                    <mxGeometry relative="1" as="geometry"/>
                </mxCell>
                <mxCell id="26" style="edgeStyle=orthogonalEdgeStyle;rounded=0;orthogonalLoop=1;jettySize=auto;html=1;exitX=0;exitY=0.5;exitDx=0;exitDy=0;entryX=1;entryY=0.5;entryDx=0;entryDy=0;" edge="1" parent="3" source="19" target="13">
                    <mxGeometry relative="1" as="geometry"/>
                </mxCell>
                <mxCell id="27" value="" style="swimlane;whiteSpace=wrap;html=1;" vertex="1" parent="1">
                    <mxGeometry x="109" y="680" width="610" height="310" as="geometry"/>
                </mxCell>
                <mxCell id="28" value="Admin" style="swimlane;whiteSpace=wrap;html=1;startSize=23;" vertex="1" parent="27">
                    <mxGeometry width="210" height="310" as="geometry"/>
                </mxCell>
                <mxCell id="29" style="edgeStyle=orthogonalEdgeStyle;rounded=0;orthogonalLoop=1;jettySize=auto;html=1;exitX=0.5;exitY=1;exitDx=0;exitDy=0;entryX=0.5;entryY=0;entryDx=0;entryDy=0;" edge="1" parent="28" source="30" target="31">
                    <mxGeometry relative="1" as="geometry"/>
                </mxCell>
                <mxCell id="30" value="Start" style="rounded=1;whiteSpace=wrap;html=1;" vertex="1" parent="28">
                    <mxGeometry x="30" y="30" width="130" height="60" as="geometry"/>
                </mxCell>
                <mxCell id="31" value="LivePage" style="rounded=0;whiteSpace=wrap;html=1;" vertex="1" parent="28">
                    <mxGeometry x="35" y="110" width="120" height="60" as="geometry"/>
                </mxCell>
                <mxCell id="32" value="Web sever" style="swimlane;whiteSpace=wrap;html=1;startSize=23;" vertex="1" parent="27">
                    <mxGeometry x="210" width="200" height="310" as="geometry"/>
                </mxCell>
                <mxCell id="33" style="edgeStyle=orthogonalEdgeStyle;rounded=0;orthogonalLoop=1;jettySize=auto;html=1;exitX=0.5;exitY=1;exitDx=0;exitDy=0;entryX=0.5;entryY=0;entryDx=0;entryDy=0;" edge="1" parent="32" source="34" target="35">
                    <mxGeometry relative="1" as="geometry"/>
                </mxCell>
                <mxCell id="34" value="Show Live" style="rounded=0;whiteSpace=wrap;html=1;" vertex="1" parent="32">
                    <mxGeometry x="35" y="110" width="120" height="60" as="geometry"/>
                </mxCell>
                <mxCell id="35" value="End" style="rounded=1;whiteSpace=wrap;html=1;" vertex="1" parent="32">
                    <mxGeometry x="35" y="210" width="120" height="60" as="geometry"/>
                </mxCell>
                <mxCell id="36" value="Ai Server" style="swimlane;whiteSpace=wrap;html=1;startSize=23;" vertex="1" parent="27">
                    <mxGeometry x="410" width="200" height="310" as="geometry"/>
                </mxCell>
                <mxCell id="37" value="detection helmet" style="rounded=0;whiteSpace=wrap;html=1;" vertex="1" parent="36">
                    <mxGeometry x="35" y="110" width="130" height="60" as="geometry"/>
                </mxCell>
                <mxCell id="38" style="edgeStyle=orthogonalEdgeStyle;rounded=0;orthogonalLoop=1;jettySize=auto;html=1;exitX=0;exitY=0.5;exitDx=0;exitDy=0;entryX=1;entryY=0.5;entryDx=0;entryDy=0;" edge="1" parent="27" source="37" target="34">
                    <mxGeometry relative="1" as="geometry"/>
                </mxCell>
                <mxCell id="39" style="edgeStyle=orthogonalEdgeStyle;rounded=0;orthogonalLoop=1;jettySize=auto;html=1;exitX=1;exitY=0.5;exitDx=0;exitDy=0;entryX=0;entryY=0.5;entryDx=0;entryDy=0;" edge="1" parent="27" source="31" target="34">
                    <mxGeometry relative="1" as="geometry"/>
                </mxCell>
                <mxCell id="40" value="" style="swimlane;whiteSpace=wrap;html=1;" vertex="1" parent="1">
                    <mxGeometry x="836" y="120" width="610" height="310" as="geometry"/>
                </mxCell>
                <mxCell id="41" value="Admin" style="swimlane;whiteSpace=wrap;html=1;startSize=23;" vertex="1" parent="40">
                    <mxGeometry width="210" height="310" as="geometry"/>
                </mxCell>
                <mxCell id="42" style="edgeStyle=orthogonalEdgeStyle;rounded=0;orthogonalLoop=1;jettySize=auto;html=1;exitX=0.5;exitY=1;exitDx=0;exitDy=0;entryX=0.5;entryY=0;entryDx=0;entryDy=0;" edge="1" parent="41" source="43" target="44">
                    <mxGeometry relative="1" as="geometry"/>
                </mxCell>
                <mxCell id="43" value="Start" style="rounded=1;whiteSpace=wrap;html=1;" vertex="1" parent="41">
                    <mxGeometry x="30" y="30" width="130" height="60" as="geometry"/>
                </mxCell>
                <mxCell id="44" value="DashBoard" style="rounded=0;whiteSpace=wrap;html=1;" vertex="1" parent="41">
                    <mxGeometry x="35" y="110" width="120" height="60" as="geometry"/>
                </mxCell>
                <mxCell id="45" value="Web Server" style="swimlane;whiteSpace=wrap;html=1;startSize=23;" vertex="1" parent="40">
                    <mxGeometry x="210" width="200" height="310" as="geometry"/>
                </mxCell>
                <mxCell id="46" value="" style="edgeStyle=orthogonalEdgeStyle;rounded=0;orthogonalLoop=1;jettySize=auto;html=1;" edge="1" parent="45" source="47" target="48">
                    <mxGeometry relative="1" as="geometry"/>
                </mxCell>
                <mxCell id="47" value="Show Dashboard" style="rounded=0;whiteSpace=wrap;html=1;" vertex="1" parent="45">
                    <mxGeometry x="35" y="110" width="120" height="60" as="geometry"/>
                </mxCell>
                <mxCell id="48" value="End" style="rounded=1;whiteSpace=wrap;html=1;" vertex="1" parent="45">
                    <mxGeometry x="35" y="198" width="120" height="60" as="geometry"/>
                </mxCell>
                <mxCell id="49" value="Ai Server" style="swimlane;whiteSpace=wrap;html=1;startSize=23;" vertex="1" parent="40">
                    <mxGeometry x="410" width="200" height="310" as="geometry"/>
                </mxCell>
                <mxCell id="50" value="Database" style="shape=cylinder3;whiteSpace=wrap;html=1;boundedLbl=1;backgroundOutline=1;size=15;" vertex="1" parent="49">
                    <mxGeometry x="66.25" y="105" width="67.5" height="70" as="geometry"/>
                </mxCell>
                <mxCell id="51" style="edgeStyle=orthogonalEdgeStyle;rounded=0;orthogonalLoop=1;jettySize=auto;html=1;exitX=1;exitY=0.5;exitDx=0;exitDy=0;entryX=0;entryY=0.5;entryDx=0;entryDy=0;" edge="1" parent="40" source="44" target="47">
                    <mxGeometry relative="1" as="geometry"/>
                </mxCell>
                <mxCell id="52" style="edgeStyle=orthogonalEdgeStyle;rounded=0;orthogonalLoop=1;jettySize=auto;html=1;exitX=0;exitY=0.5;exitDx=0;exitDy=0;exitPerimeter=0;" edge="1" parent="40" source="50" target="47">
                    <mxGeometry relative="1" as="geometry"/>
                </mxCell>
                <mxCell id="53" value="Ai Server" style="swimlane;whiteSpace=wrap;html=1;startSize=23;" vertex="1" parent="1">
                    <mxGeometry x="1446" y="120" width="200" height="310" as="geometry"/>
                </mxCell>
                <mxCell id="54" style="edgeStyle=orthogonalEdgeStyle;rounded=0;orthogonalLoop=1;jettySize=auto;html=1;exitX=0.5;exitY=1;exitDx=0;exitDy=0;entryX=0.5;entryY=0;entryDx=0;entryDy=0;" edge="1" parent="53" source="55" target="56">
                    <mxGeometry relative="1" as="geometry"/>
                </mxCell>
                <mxCell id="55" value="detection helmet" style="rounded=0;whiteSpace=wrap;html=1;" vertex="1" parent="53">
                    <mxGeometry x="35" y="30" width="130" height="60" as="geometry"/>
                </mxCell>
                <mxCell id="56" value="Check the wearing of helmets" style="rounded=0;whiteSpace=wrap;html=1;" vertex="1" parent="53">
                    <mxGeometry x="35" y="110" width="130" height="60" as="geometry"/>
                </mxCell>
                <mxCell id="57" style="edgeStyle=orthogonalEdgeStyle;rounded=0;orthogonalLoop=1;jettySize=auto;html=1;exitX=0;exitY=0.5;exitDx=0;exitDy=0;entryX=1;entryY=0.5;entryDx=0;entryDy=0;entryPerimeter=0;" edge="1" parent="1" source="56" target="50">
                    <mxGeometry relative="1" as="geometry"/>
                </mxCell>
                <mxCell id="58" value="" style="swimlane;whiteSpace=wrap;html=1;" vertex="1" parent="1">
                    <mxGeometry x="835" y="540" width="610" height="440" as="geometry"/>
                </mxCell>
                <mxCell id="59" value="Admin" style="swimlane;whiteSpace=wrap;html=1;startSize=23;" vertex="1" parent="58">
                    <mxGeometry width="210" height="440" as="geometry"/>
                </mxCell>
                <mxCell id="60" style="edgeStyle=orthogonalEdgeStyle;rounded=0;orthogonalLoop=1;jettySize=auto;html=1;exitX=0.5;exitY=1;exitDx=0;exitDy=0;" edge="1" parent="59" source="61">
                    <mxGeometry relative="1" as="geometry">
                        <mxPoint x="95" y="159.99999999999977" as="targetPoint"/>
                    </mxGeometry>
                </mxCell>
                <mxCell id="61" value="Start" style="rounded=1;whiteSpace=wrap;html=1;" vertex="1" parent="59">
                    <mxGeometry x="30" y="30" width="130" height="60" as="geometry"/>
                </mxCell>
                <mxCell id="62" style="edgeStyle=orthogonalEdgeStyle;rounded=0;orthogonalLoop=1;jettySize=auto;html=1;exitX=1;exitY=0.5;exitDx=0;exitDy=0;" edge="1" parent="59" source="63">
                    <mxGeometry relative="1" as="geometry">
                        <mxPoint x="233" y="191" as="targetPoint"/>
                    </mxGeometry>
                </mxCell>
                <mxCell id="63" value="History" style="rounded=0;whiteSpace=wrap;html=1;" vertex="1" parent="59">
                    <mxGeometry x="30" y="161" width="120" height="60" as="geometry"/>
                </mxCell>
                <mxCell id="64" value="End" style="rounded=1;whiteSpace=wrap;html=1;" vertex="1" parent="59">
                    <mxGeometry x="40" y="340" width="120" height="60" as="geometry"/>
                </mxCell>
                <mxCell id="65" value="Web Server" style="swimlane;whiteSpace=wrap;html=1;startSize=23;" vertex="1" parent="58">
                    <mxGeometry x="210" width="200" height="440" as="geometry"/>
                </mxCell>
                <mxCell id="66" value="Select time range" style="rounded=0;whiteSpace=wrap;html=1;" vertex="1" parent="65">
                    <mxGeometry x="28" y="156" width="120" height="60" as="geometry"/>
                </mxCell>
                <mxCell id="67" value="" style="edgeStyle=orthogonalEdgeStyle;rounded=0;orthogonalLoop=1;jettySize=auto;html=1;" edge="1" parent="65" source="68" target="69">
                    <mxGeometry relative="1" as="geometry"/>
                </mxCell>
                <mxCell id="68" value="Fetch data by time&lt;div&gt;period&lt;/div&gt;" style="rounded=0;whiteSpace=wrap;html=1;" vertex="1" parent="65">
                    <mxGeometry x="27" y="340" width="130" height="60" as="geometry"/>
                </mxCell>
                <mxCell id="69" value="Display time period" style="rounded=0;whiteSpace=wrap;html=1;" vertex="1" parent="65">
                    <mxGeometry x="28" y="250" width="130" height="60" as="geometry"/>
                </mxCell>
                <mxCell id="70" value="Database Server" style="swimlane;whiteSpace=wrap;html=1;startSize=23;" vertex="1" parent="58">
                    <mxGeometry x="410" width="200" height="440" as="geometry"/>
                </mxCell>
                <mxCell id="71" value="Database" style="shape=cylinder3;whiteSpace=wrap;html=1;boundedLbl=1;backgroundOutline=1;size=15;" vertex="1" parent="70">
                    <mxGeometry x="57" y="335" width="70" height="70" as="geometry"/>
                </mxCell>
                <mxCell id="72" value="Request" style="rounded=0;whiteSpace=wrap;html=1;" vertex="1" parent="70">
                    <mxGeometry x="32" y="156" width="120" height="60" as="geometry"/>
                </mxCell>
                <mxCell id="73" style="edgeStyle=orthogonalEdgeStyle;rounded=0;orthogonalLoop=1;jettySize=auto;html=1;exitX=0.5;exitY=1;exitDx=0;exitDy=0;entryX=0.5;entryY=0;entryDx=0;entryDy=0;entryPerimeter=0;" edge="1" parent="70" source="72" target="71">
                    <mxGeometry relative="1" as="geometry"/>
                </mxCell>
                <mxCell id="74" value="" style="edgeStyle=orthogonalEdgeStyle;rounded=0;orthogonalLoop=1;jettySize=auto;html=1;" edge="1" parent="58" source="66" target="72">
                    <mxGeometry relative="1" as="geometry"/>
                </mxCell>
                <mxCell id="75" value="" style="edgeStyle=orthogonalEdgeStyle;rounded=0;orthogonalLoop=1;jettySize=auto;html=1;" edge="1" parent="58" source="71" target="68">
                    <mxGeometry relative="1" as="geometry"/>
                </mxCell>
                <mxCell id="76" style="edgeStyle=orthogonalEdgeStyle;rounded=0;orthogonalLoop=1;jettySize=auto;html=1;exitX=0;exitY=0.5;exitDx=0;exitDy=0;entryX=0.5;entryY=0;entryDx=0;entryDy=0;" edge="1" parent="58" source="69" target="64">
                    <mxGeometry relative="1" as="geometry"/>
                </mxCell>
                <mxCell id="77" value="Ai Server" style="swimlane;whiteSpace=wrap;html=1;startSize=23;" vertex="1" parent="1">
                    <mxGeometry x="1445" y="540" width="200" height="440" as="geometry"/>
                </mxCell>
                <mxCell id="78" style="edgeStyle=orthogonalEdgeStyle;rounded=0;orthogonalLoop=1;jettySize=auto;html=1;exitX=0.5;exitY=1;exitDx=0;exitDy=0;entryX=0.5;entryY=0;entryDx=0;entryDy=0;" edge="1" parent="77" source="79" target="80">
                    <mxGeometry relative="1" as="geometry"/>
                </mxCell>
                <mxCell id="79" value="Detection helmet" style="rounded=0;whiteSpace=wrap;html=1;" vertex="1" parent="77">
                    <mxGeometry x="43" y="56" width="120" height="60" as="geometry"/>
                </mxCell>
                <mxCell id="80" value="Check the wearing of&lt;div&gt;helmets&lt;/div&gt;" style="rounded=0;whiteSpace=wrap;html=1;" vertex="1" parent="77">
                    <mxGeometry x="43" y="340" width="120" height="60" as="geometry"/>
                </mxCell>
                <mxCell id="81" style="edgeStyle=orthogonalEdgeStyle;rounded=0;orthogonalLoop=1;jettySize=auto;html=1;exitX=0;exitY=0.5;exitDx=0;exitDy=0;entryX=1;entryY=0.5;entryDx=0;entryDy=0;entryPerimeter=0;" edge="1" parent="1" source="80" target="71">
                    <mxGeometry relative="1" as="geometry">
                        <mxPoint x="1388" y="720.8333333333335" as="targetPoint"/>
                    </mxGeometry>
                </mxCell>
                <mxCell id="82" value="" style="swimlane;whiteSpace=wrap;html=1;" vertex="1" parent="1">
                    <mxGeometry x="890" y="1250" width="610" height="550" as="geometry"/>
                </mxCell>
                <mxCell id="83" value="Admin" style="swimlane;whiteSpace=wrap;html=1;startSize=23;" vertex="1" parent="82">
                    <mxGeometry width="210" height="550" as="geometry"/>
                </mxCell>
                <mxCell id="84" style="edgeStyle=orthogonalEdgeStyle;rounded=0;orthogonalLoop=1;jettySize=auto;html=1;exitX=0.5;exitY=1;exitDx=0;exitDy=0;entryX=0.5;entryY=0;entryDx=0;entryDy=0;" edge="1" parent="83" source="85" target="86">
                    <mxGeometry relative="1" as="geometry"/>
                </mxCell>
                <mxCell id="85" value="Start" style="rounded=1;whiteSpace=wrap;html=1;" vertex="1" parent="83">
                    <mxGeometry x="30" y="30" width="130" height="60" as="geometry"/>
                </mxCell>
                <mxCell id="86" value="Management" style="rounded=0;whiteSpace=wrap;html=1;" vertex="1" parent="83">
                    <mxGeometry x="35" y="110" width="120" height="60" as="geometry"/>
                </mxCell>
                <mxCell id="87" value="" style="edgeStyle=orthogonalEdgeStyle;rounded=0;orthogonalLoop=1;jettySize=auto;html=1;" edge="1" parent="83" source="88" target="90">
                    <mxGeometry relative="1" as="geometry"/>
                </mxCell>
                <mxCell id="88" value="Add" style="rounded=0;whiteSpace=wrap;html=1;" vertex="1" parent="83">
                    <mxGeometry x="35" y="200" width="120" height="60" as="geometry"/>
                </mxCell>
                <mxCell id="89" style="edgeStyle=orthogonalEdgeStyle;rounded=0;orthogonalLoop=1;jettySize=auto;html=1;exitX=1;exitY=0.5;exitDx=0;exitDy=0;" edge="1" parent="83" source="90">
                    <mxGeometry relative="1" as="geometry">
                        <mxPoint x="470" y="320" as="targetPoint"/>
                    </mxGeometry>
                </mxCell>
                <mxCell id="90" value="Enter your name,&lt;div&gt;password,role&lt;/div&gt;" style="rounded=0;whiteSpace=wrap;html=1;" vertex="1" parent="83">
                    <mxGeometry x="35" y="290" width="120" height="60" as="geometry"/>
                </mxCell>
                <mxCell id="91" value="Web sever" style="swimlane;whiteSpace=wrap;html=1;startSize=23;" vertex="1" parent="82">
                    <mxGeometry x="210" width="200" height="550" as="geometry"/>
                </mxCell>
                <mxCell id="92" value="Show Management" style="rounded=0;whiteSpace=wrap;html=1;" vertex="1" parent="91">
                    <mxGeometry x="40" y="110" width="130" height="60" as="geometry"/>
                </mxCell>
                <mxCell id="93" value="" style="edgeStyle=orthogonalEdgeStyle;rounded=0;orthogonalLoop=1;jettySize=auto;html=1;" edge="1" parent="91" source="94" target="95">
                    <mxGeometry relative="1" as="geometry"/>
                </mxCell>
                <mxCell id="94" value="Show Succeed" style="rounded=0;whiteSpace=wrap;html=1;" vertex="1" parent="91">
                    <mxGeometry x="35" y="360" width="130" height="60" as="geometry"/>
                </mxCell>
                <mxCell id="95" value="End" style="rounded=1;whiteSpace=wrap;html=1;" vertex="1" parent="91">
                    <mxGeometry x="40" y="460" width="120" height="60" as="geometry"/>
                </mxCell>
                <mxCell id="96" value="Database Server" style="swimlane;whiteSpace=wrap;html=1;startSize=23;" vertex="1" parent="82">
                    <mxGeometry x="410" width="200" height="550" as="geometry"/>
                </mxCell>
                <mxCell id="97" value="Database" style="shape=cylinder3;whiteSpace=wrap;html=1;boundedLbl=1;backgroundOutline=1;size=15;" vertex="1" parent="96">
                    <mxGeometry x="64.25" y="280" width="71.5" height="70" as="geometry"/>
                </mxCell>
                <mxCell id="98" value="Database" style="shape=cylinder3;whiteSpace=wrap;html=1;boundedLbl=1;backgroundOutline=1;size=15;" vertex="1" parent="96">
                    <mxGeometry x="64.25" y="105" width="71.5" height="70" as="geometry"/>
                </mxCell>
                <mxCell id="99" style="edgeStyle=orthogonalEdgeStyle;rounded=0;orthogonalLoop=1;jettySize=auto;html=1;exitX=1;exitY=0.5;exitDx=0;exitDy=0;entryX=0;entryY=0.5;entryDx=0;entryDy=0;" edge="1" parent="82" source="86" target="92">
                    <mxGeometry relative="1" as="geometry"/>
                </mxCell>
                <mxCell id="100" style="edgeStyle=orthogonalEdgeStyle;rounded=0;orthogonalLoop=1;jettySize=auto;html=1;exitX=0.5;exitY=1;exitDx=0;exitDy=0;entryX=1;entryY=0.5;entryDx=0;entryDy=0;" edge="1" parent="82" source="92" target="88">
                    <mxGeometry relative="1" as="geometry"/>
                </mxCell>
                <mxCell id="101" style="edgeStyle=orthogonalEdgeStyle;rounded=0;orthogonalLoop=1;jettySize=auto;html=1;exitX=0.5;exitY=1;exitDx=0;exitDy=0;entryX=0;entryY=0.5;entryDx=0;entryDy=0;" edge="1" parent="82" source="90" target="94">
                    <mxGeometry relative="1" as="geometry"/>
                </mxCell>
                <mxCell id="102" value="" style="edgeStyle=orthogonalEdgeStyle;rounded=0;orthogonalLoop=1;jettySize=auto;html=1;" edge="1" parent="82" source="98" target="92">
                    <mxGeometry relative="1" as="geometry"/>
                </mxCell>
                <mxCell id="103" value="" style="swimlane;whiteSpace=wrap;html=1;" vertex="1" parent="1">
                    <mxGeometry x="1770" y="80" width="610" height="550" as="geometry"/>
                </mxCell>
                <mxCell id="104" value="Admin" style="swimlane;whiteSpace=wrap;html=1;startSize=23;" vertex="1" parent="103">
                    <mxGeometry width="210" height="550" as="geometry"/>
                </mxCell>
                <mxCell id="105" style="edgeStyle=orthogonalEdgeStyle;rounded=0;orthogonalLoop=1;jettySize=auto;html=1;exitX=0.5;exitY=1;exitDx=0;exitDy=0;entryX=0.5;entryY=0;entryDx=0;entryDy=0;" edge="1" parent="104" source="106" target="107">
                    <mxGeometry relative="1" as="geometry"/>
                </mxCell>
                <mxCell id="106" value="Start" style="rounded=1;whiteSpace=wrap;html=1;" vertex="1" parent="104">
                    <mxGeometry x="30" y="30" width="130" height="60" as="geometry"/>
                </mxCell>
                <mxCell id="107" value="Management" style="rounded=0;whiteSpace=wrap;html=1;" vertex="1" parent="104">
                    <mxGeometry x="35" y="110" width="120" height="60" as="geometry"/>
                </mxCell>
                <mxCell id="108" value="" style="edgeStyle=orthogonalEdgeStyle;rounded=0;orthogonalLoop=1;jettySize=auto;html=1;" edge="1" parent="104" source="109" target="111">
                    <mxGeometry relative="1" as="geometry"/>
                </mxCell>
                <mxCell id="109" value="Edit" style="rounded=0;whiteSpace=wrap;html=1;" vertex="1" parent="104">
                    <mxGeometry x="35" y="200" width="120" height="60" as="geometry"/>
                </mxCell>
                <mxCell id="110" style="edgeStyle=orthogonalEdgeStyle;rounded=0;orthogonalLoop=1;jettySize=auto;html=1;exitX=1;exitY=0.5;exitDx=0;exitDy=0;" edge="1" parent="104" source="111">
                    <mxGeometry relative="1" as="geometry">
                        <mxPoint x="470" y="320" as="targetPoint"/>
                    </mxGeometry>
                </mxCell>
                <mxCell id="111" value="Edit your name,&lt;div&gt;password,role&lt;/div&gt;" style="rounded=0;whiteSpace=wrap;html=1;" vertex="1" parent="104">
                    <mxGeometry x="35" y="290" width="120" height="60" as="geometry"/>
                </mxCell>
                <mxCell id="112" value="Web sever" style="swimlane;whiteSpace=wrap;html=1;startSize=23;" vertex="1" parent="103">
                    <mxGeometry x="210" width="200" height="550" as="geometry"/>
                </mxCell>
                <mxCell id="113" value="Show Management" style="rounded=0;whiteSpace=wrap;html=1;" vertex="1" parent="112">
                    <mxGeometry x="40" y="110" width="130" height="60" as="geometry"/>
                </mxCell>
                <mxCell id="114" value="" style="edgeStyle=orthogonalEdgeStyle;rounded=0;orthogonalLoop=1;jettySize=auto;html=1;" edge="1" parent="112" source="115" target="116">
                    <mxGeometry relative="1" as="geometry"/>
                </mxCell>
                <mxCell id="115" value="Show Succeed" style="rounded=0;whiteSpace=wrap;html=1;" vertex="1" parent="112">
                    <mxGeometry x="35" y="360" width="130" height="60" as="geometry"/>
                </mxCell>
                <mxCell id="116" value="End" style="rounded=1;whiteSpace=wrap;html=1;" vertex="1" parent="112">
                    <mxGeometry x="40" y="460" width="120" height="60" as="geometry"/>
                </mxCell>
                <mxCell id="117" value="Database Server" style="swimlane;whiteSpace=wrap;html=1;startSize=23;" vertex="1" parent="103">
                    <mxGeometry x="410" width="200" height="550" as="geometry"/>
                </mxCell>
                <mxCell id="118" value="Database" style="shape=cylinder3;whiteSpace=wrap;html=1;boundedLbl=1;backgroundOutline=1;size=15;" vertex="1" parent="117">
                    <mxGeometry x="64.25" y="280" width="71.5" height="70" as="geometry"/>
                </mxCell>
                <mxCell id="119" value="Database" style="shape=cylinder3;whiteSpace=wrap;html=1;boundedLbl=1;backgroundOutline=1;size=15;" vertex="1" parent="117">
                    <mxGeometry x="64.25" y="105" width="71.5" height="70" as="geometry"/>
                </mxCell>
                <mxCell id="120" style="edgeStyle=orthogonalEdgeStyle;rounded=0;orthogonalLoop=1;jettySize=auto;html=1;exitX=1;exitY=0.5;exitDx=0;exitDy=0;entryX=0;entryY=0.5;entryDx=0;entryDy=0;" edge="1" parent="103" source="107" target="113">
                    <mxGeometry relative="1" as="geometry"/>
                </mxCell>
                <mxCell id="121" style="edgeStyle=orthogonalEdgeStyle;rounded=0;orthogonalLoop=1;jettySize=auto;html=1;exitX=0.5;exitY=1;exitDx=0;exitDy=0;entryX=1;entryY=0.5;entryDx=0;entryDy=0;" edge="1" parent="103" source="113" target="109">
                    <mxGeometry relative="1" as="geometry"/>
                </mxCell>
                <mxCell id="122" style="edgeStyle=orthogonalEdgeStyle;rounded=0;orthogonalLoop=1;jettySize=auto;html=1;exitX=0.5;exitY=1;exitDx=0;exitDy=0;entryX=0;entryY=0.5;entryDx=0;entryDy=0;" edge="1" parent="103" source="111" target="115">
                    <mxGeometry relative="1" as="geometry"/>
                </mxCell>
                <mxCell id="123" value="" style="edgeStyle=orthogonalEdgeStyle;rounded=0;orthogonalLoop=1;jettySize=auto;html=1;" edge="1" parent="103" source="119" target="113">
                    <mxGeometry relative="1" as="geometry"/>
                </mxCell>
                <mxCell id="124" value="" style="swimlane;whiteSpace=wrap;html=1;" vertex="1" parent="1">
                    <mxGeometry x="90" y="1245" width="610" height="550" as="geometry"/>
                </mxCell>
                <mxCell id="125" value="Admin" style="swimlane;whiteSpace=wrap;html=1;startSize=23;" vertex="1" parent="124">
                    <mxGeometry width="210" height="550" as="geometry"/>
                </mxCell>
                <mxCell id="126" style="edgeStyle=orthogonalEdgeStyle;rounded=0;orthogonalLoop=1;jettySize=auto;html=1;exitX=0.5;exitY=1;exitDx=0;exitDy=0;entryX=0.5;entryY=0;entryDx=0;entryDy=0;" edge="1" parent="125" source="127" target="128">
                    <mxGeometry relative="1" as="geometry"/>
                </mxCell>
                <mxCell id="127" value="Start" style="rounded=1;whiteSpace=wrap;html=1;" vertex="1" parent="125">
                    <mxGeometry x="30" y="30" width="130" height="60" as="geometry"/>
                </mxCell>
                <mxCell id="128" value="Management" style="rounded=0;whiteSpace=wrap;html=1;" vertex="1" parent="125">
                    <mxGeometry x="35" y="110" width="120" height="60" as="geometry"/>
                </mxCell>
                <mxCell id="129" value="" style="edgeStyle=orthogonalEdgeStyle;rounded=0;orthogonalLoop=1;jettySize=auto;html=1;" edge="1" parent="125" source="130" target="132">
                    <mxGeometry relative="1" as="geometry"/>
                </mxCell>
                <mxCell id="130" value="Delete" style="rounded=0;whiteSpace=wrap;html=1;" vertex="1" parent="125">
                    <mxGeometry x="35" y="200" width="120" height="60" as="geometry"/>
                </mxCell>
                <mxCell id="131" style="edgeStyle=orthogonalEdgeStyle;rounded=0;orthogonalLoop=1;jettySize=auto;html=1;exitX=1;exitY=0.5;exitDx=0;exitDy=0;" edge="1" parent="125" source="132">
                    <mxGeometry relative="1" as="geometry">
                        <mxPoint x="470" y="320" as="targetPoint"/>
                    </mxGeometry>
                </mxCell>
                <mxCell id="132" value="Confirm" style="rounded=0;whiteSpace=wrap;html=1;" vertex="1" parent="125">
                    <mxGeometry x="35" y="290" width="120" height="60" as="geometry"/>
                </mxCell>
                <mxCell id="133" value="Web sever" style="swimlane;whiteSpace=wrap;html=1;startSize=23;" vertex="1" parent="124">
                    <mxGeometry x="210" width="200" height="550" as="geometry"/>
                </mxCell>
                <mxCell id="134" value="Show Management" style="rounded=0;whiteSpace=wrap;html=1;" vertex="1" parent="133">
                    <mxGeometry x="40" y="110" width="130" height="60" as="geometry"/>
                </mxCell>
                <mxCell id="135" value="" style="edgeStyle=orthogonalEdgeStyle;rounded=0;orthogonalLoop=1;jettySize=auto;html=1;" edge="1" parent="133" source="136" target="137">
                    <mxGeometry relative="1" as="geometry"/>
                </mxCell>
                <mxCell id="136" value="Show Succeed" style="rounded=0;whiteSpace=wrap;html=1;" vertex="1" parent="133">
                    <mxGeometry x="35" y="360" width="130" height="60" as="geometry"/>
                </mxCell>
                <mxCell id="137" value="End" style="rounded=1;whiteSpace=wrap;html=1;" vertex="1" parent="133">
                    <mxGeometry x="40" y="460" width="120" height="60" as="geometry"/>
                </mxCell>
                <mxCell id="138" value="Database Server" style="swimlane;whiteSpace=wrap;html=1;startSize=23;" vertex="1" parent="124">
                    <mxGeometry x="410" width="200" height="550" as="geometry"/>
                </mxCell>
                <mxCell id="139" value="Log" style="shape=cylinder3;whiteSpace=wrap;html=1;boundedLbl=1;backgroundOutline=1;size=15;" vertex="1" parent="138">
                    <mxGeometry x="64.25" y="280" width="71.5" height="70" as="geometry"/>
                </mxCell>
                <mxCell id="140" value="Database" style="shape=cylinder3;whiteSpace=wrap;html=1;boundedLbl=1;backgroundOutline=1;size=15;" vertex="1" parent="138">
                    <mxGeometry x="64.25" y="105" width="71.5" height="70" as="geometry"/>
                </mxCell>
                <mxCell id="141" style="edgeStyle=orthogonalEdgeStyle;rounded=0;orthogonalLoop=1;jettySize=auto;html=1;exitX=1;exitY=0.5;exitDx=0;exitDy=0;entryX=0;entryY=0.5;entryDx=0;entryDy=0;" edge="1" parent="124" source="128" target="134">
                    <mxGeometry relative="1" as="geometry"/>
                </mxCell>
                <mxCell id="142" style="edgeStyle=orthogonalEdgeStyle;rounded=0;orthogonalLoop=1;jettySize=auto;html=1;exitX=0.5;exitY=1;exitDx=0;exitDy=0;entryX=1;entryY=0.5;entryDx=0;entryDy=0;" edge="1" parent="124" source="134" target="130">
                    <mxGeometry relative="1" as="geometry"/>
                </mxCell>
                <mxCell id="143" style="edgeStyle=orthogonalEdgeStyle;rounded=0;orthogonalLoop=1;jettySize=auto;html=1;exitX=0.5;exitY=1;exitDx=0;exitDy=0;entryX=0;entryY=0.5;entryDx=0;entryDy=0;" edge="1" parent="124" source="132" target="136">
                    <mxGeometry relative="1" as="geometry"/>
                </mxCell>
                <mxCell id="144" style="edgeStyle=orthogonalEdgeStyle;rounded=0;orthogonalLoop=1;jettySize=auto;html=1;exitX=0;exitY=0.5;exitDx=0;exitDy=0;exitPerimeter=0;" edge="1" parent="124" source="140" target="134">
                    <mxGeometry relative="1" as="geometry"/>
                </mxCell>
                <mxCell id="145" value="Admin Login" style="text;html=1;align=center;verticalAlign=middle;whiteSpace=wrap;rounded=0;" vertex="1" parent="1">
                    <mxGeometry x="390" y="60" width="79" height="30" as="geometry"/>
                </mxCell>
                <mxCell id="146" value="Admin LivePage" style="text;html=1;align=center;verticalAlign=middle;whiteSpace=wrap;rounded=0;" vertex="1" parent="1">
                    <mxGeometry x="370" y="640" width="99" height="30" as="geometry"/>
                </mxCell>
                <mxCell id="147" value="Admin History" style="text;html=1;align=center;verticalAlign=middle;whiteSpace=wrap;rounded=0;" vertex="1" parent="1">
                    <mxGeometry x="1203" y="500" width="99" height="30" as="geometry"/>
                </mxCell>
                <mxCell id="148" value="Admin DashBoard" style="text;html=1;align=center;verticalAlign=middle;whiteSpace=wrap;rounded=0;" vertex="1" parent="1">
                    <mxGeometry x="1193" y="90" width="120" height="30" as="geometry"/>
                </mxCell>
                <mxCell id="149" value="Admin AddManagement" style="text;html=1;align=center;verticalAlign=middle;whiteSpace=wrap;rounded=0;" vertex="1" parent="1">
                    <mxGeometry x="1141" y="1220" width="159" height="30" as="geometry"/>
                </mxCell>
                <mxCell id="150" value="Admin Edit&lt;span style=&quot;color: rgba(0, 0, 0, 0); font-family: monospace; font-size: 0px; text-align: start; text-wrap-mode: nowrap;&quot;&gt;%3CmxGraphModel%3E%3Croot%3E%3CmxCell%20id%3D%220%22%2F%3E%3CmxCell%20id%3D%221%22%20parent%3D%220%22%2F%3E%3CmxCell%20id%3D%222%22%20value%3D%22Admin%20AddManagement%22%20style%3D%22text%3Bhtml%3D1%3Balign%3Dcenter%3BverticalAlign%3Dmiddle%3BwhiteSpace%3Dwrap%3Brounded%3D0%3B%22%20vertex%3D%221%22%20parent%3D%221%22%3E%3CmxGeometry%20x%3D%221141%22%20y%3D%221220%22%20width%3D%22159%22%20height%3D%2230%22%20as%3D%22geometry%22%2F%3E%3C%2FmxCell%3E%3C%2Froot%3E%3C%2FmxGraphModel%3E&lt;/span&gt;Management" style="text;html=1;align=center;verticalAlign=middle;whiteSpace=wrap;rounded=0;" vertex="1" parent="1">
                    <mxGeometry x="2000" y="50" width="159" height="30" as="geometry"/>
                </mxCell>
                <mxCell id="151" value="Admin Delete&lt;span style=&quot;color: rgba(0, 0, 0, 0); font-family: monospace; font-size: 0px; text-align: start; text-wrap-mode: nowrap;&quot;&gt;%3CmxGraphModel%3E%3Croot%3E%3CmxCell%20id%3D%220%22%2F%3E%3CmxCell%20id%3D%221%22%20parent%3D%220%22%2F%3E%3CmxCell%20id%3D%222%22%20value%3D%22Admin%20AddManagement%22%20style%3D%22text%3Bhtml%3D1%3Balign%3Dcenter%3BverticalAlign%3Dmiddle%3BwhiteSpace%3Dwrap%3Brounded%3D0%3B%22%20vertex%3D%221%22%20parent%3D%221%22%3E%3CmxGeometry%20x%3D%221141%22%20y%3D%221220%22%20width%3D%22159%22%20height%3D%2230%22%20as%3D%22geometry%22%2F%3E%3C%2FmxCell%3E%3C%2Froot%3E%3C%2FmxGraphModel%3E&lt;/span&gt;Management" style="text;html=1;align=center;verticalAlign=middle;whiteSpace=wrap;rounded=0;" vertex="1" parent="1">
                    <mxGeometry x="315" y="1210" width="159" height="30" as="geometry"/>
                </mxCell>
                <mxCell id="toicKRDC-WUohQa_SePd-151" value="Swimlane" style="swimlane;whiteSpace=wrap;html=1;" vertex="1" parent="1">
                    <mxGeometry x="1710" y="1220" width="800" height="1270" as="geometry"/>
                </mxCell>
                <mxCell id="toicKRDC-WUohQa_SePd-152" value="Admin" style="swimlane;whiteSpace=wrap;html=1;startSize=23;" vertex="1" parent="toicKRDC-WUohQa_SePd-151">
                    <mxGeometry y="20" width="210" height="1250" as="geometry"/>
                </mxCell>
                <mxCell id="toicKRDC-WUohQa_SePd-153" style="edgeStyle=orthogonalEdgeStyle;rounded=0;orthogonalLoop=1;jettySize=auto;html=1;exitX=0.5;exitY=1;exitDx=0;exitDy=0;entryX=0.5;entryY=0;entryDx=0;entryDy=0;" edge="1" parent="toicKRDC-WUohQa_SePd-152" source="toicKRDC-WUohQa_SePd-154" target="toicKRDC-WUohQa_SePd-155">
                    <mxGeometry relative="1" as="geometry"/>
                </mxCell>
                <mxCell id="toicKRDC-WUohQa_SePd-154" value="Start" style="rounded=1;whiteSpace=wrap;html=1;" vertex="1" parent="toicKRDC-WUohQa_SePd-152">
                    <mxGeometry x="30" y="30" width="130" height="60" as="geometry"/>
                </mxCell>
                <mxCell id="toicKRDC-WUohQa_SePd-155" value="Login" style="rounded=0;whiteSpace=wrap;html=1;" vertex="1" parent="toicKRDC-WUohQa_SePd-152">
                    <mxGeometry x="35" y="110" width="120" height="60" as="geometry"/>
                </mxCell>
                <mxCell id="toicKRDC-WUohQa_SePd-156" style="edgeStyle=orthogonalEdgeStyle;rounded=0;orthogonalLoop=1;jettySize=auto;html=1;exitX=0.5;exitY=0;exitDx=0;exitDy=0;entryX=0.5;entryY=1;entryDx=0;entryDy=0;" edge="1" parent="toicKRDC-WUohQa_SePd-152" source="toicKRDC-WUohQa_SePd-157" target="toicKRDC-WUohQa_SePd-155">
                    <mxGeometry relative="1" as="geometry"/>
                </mxCell>
                <mxCell id="toicKRDC-WUohQa_SePd-157" value="Error alert" style="rounded=0;whiteSpace=wrap;html=1;" vertex="1" parent="toicKRDC-WUohQa_SePd-152">
                    <mxGeometry x="35" y="210" width="120" height="60" as="geometry"/>
                </mxCell>
                <mxCell id="toicKRDC-WUohQa_SePd-158" value="Select" style="text;html=1;align=center;verticalAlign=middle;whiteSpace=wrap;rounded=0;" vertex="1" parent="toicKRDC-WUohQa_SePd-152">
                    <mxGeometry x="103" y="421" width="60" height="30" as="geometry"/>
                </mxCell>
                <mxCell id="toicKRDC-WUohQa_SePd-159" style="edgeStyle=orthogonalEdgeStyle;rounded=0;orthogonalLoop=1;jettySize=auto;html=1;exitX=0;exitY=0.5;exitDx=0;exitDy=0;entryX=0;entryY=0.5;entryDx=0;entryDy=0;" edge="1" parent="toicKRDC-WUohQa_SePd-152" source="toicKRDC-WUohQa_SePd-161" target="toicKRDC-WUohQa_SePd-166">
                    <mxGeometry relative="1" as="geometry">
                        <Array as="points">
                            <mxPoint x="30" y="386"/>
                            <mxPoint x="30" y="566"/>
                        </Array>
                    </mxGeometry>
                </mxCell>
                <mxCell id="toicKRDC-WUohQa_SePd-160" style="edgeStyle=orthogonalEdgeStyle;rounded=0;orthogonalLoop=1;jettySize=auto;html=1;exitX=0;exitY=0.5;exitDx=0;exitDy=0;entryX=0;entryY=0.5;entryDx=0;entryDy=0;" edge="1" parent="toicKRDC-WUohQa_SePd-152" source="toicKRDC-WUohQa_SePd-161" target="toicKRDC-WUohQa_SePd-170">
                    <mxGeometry relative="1" as="geometry">
                        <Array as="points">
                            <mxPoint x="30" y="386"/>
                            <mxPoint x="30" y="912"/>
                        </Array>
                    </mxGeometry>
                </mxCell>
                <mxCell id="toicKRDC-WUohQa_SePd-161" value="Menu" style="rhombus;whiteSpace=wrap;html=1;" vertex="1" parent="toicKRDC-WUohQa_SePd-152">
                    <mxGeometry x="68" y="346" width="80" height="80" as="geometry"/>
                </mxCell>
                <mxCell id="toicKRDC-WUohQa_SePd-162" style="edgeStyle=orthogonalEdgeStyle;rounded=0;orthogonalLoop=1;jettySize=auto;html=1;exitX=0.5;exitY=1;exitDx=0;exitDy=0;entryX=0.421;entryY=-0.005;entryDx=0;entryDy=0;entryPerimeter=0;" edge="1" parent="toicKRDC-WUohQa_SePd-152" source="toicKRDC-WUohQa_SePd-161" target="toicKRDC-WUohQa_SePd-165">
                    <mxGeometry relative="1" as="geometry"/>
                </mxCell>
                <mxCell id="toicKRDC-WUohQa_SePd-163" value="Select" style="text;html=1;align=center;verticalAlign=middle;whiteSpace=wrap;rounded=0;" vertex="1" parent="toicKRDC-WUohQa_SePd-152">
                    <mxGeometry x="19" y="358" width="60" height="30" as="geometry"/>
                </mxCell>
                <mxCell id="toicKRDC-WUohQa_SePd-164" style="edgeStyle=orthogonalEdgeStyle;rounded=0;orthogonalLoop=1;jettySize=auto;html=1;exitX=1;exitY=0.5;exitDx=0;exitDy=0;entryX=0;entryY=0.5;entryDx=0;entryDy=0;" edge="1" parent="toicKRDC-WUohQa_SePd-152" source="toicKRDC-WUohQa_SePd-165" target="toicKRDC-WUohQa_SePd-167">
                    <mxGeometry relative="1" as="geometry"/>
                </mxCell>
                <mxCell id="toicKRDC-WUohQa_SePd-165" value="live video" style="rounded=0;whiteSpace=wrap;html=1;" vertex="1" parent="toicKRDC-WUohQa_SePd-152">
                    <mxGeometry x="53.5" y="466" width="130" height="60" as="geometry"/>
                </mxCell>
                <mxCell id="toicKRDC-WUohQa_SePd-166" value="Dashboard" style="rounded=0;whiteSpace=wrap;html=1;" vertex="1" parent="toicKRDC-WUohQa_SePd-152">
                    <mxGeometry x="53.5" y="536" width="130" height="60" as="geometry"/>
                </mxCell>
                <mxCell id="toicKRDC-WUohQa_SePd-167" value="RealTime" style="rounded=0;whiteSpace=wrap;html=1;" vertex="1" parent="toicKRDC-WUohQa_SePd-152">
                    <mxGeometry x="253" y="466" width="130" height="60" as="geometry"/>
                </mxCell>
                <mxCell id="toicKRDC-WUohQa_SePd-168" value="End" style="rounded=1;whiteSpace=wrap;html=1;" vertex="1" parent="toicKRDC-WUohQa_SePd-152">
                    <mxGeometry x="65.92" y="1156" width="120" height="60" as="geometry"/>
                </mxCell>
                <mxCell id="toicKRDC-WUohQa_SePd-169" style="edgeStyle=orthogonalEdgeStyle;rounded=0;orthogonalLoop=1;jettySize=auto;html=1;exitX=1;exitY=0.5;exitDx=0;exitDy=0;" edge="1" parent="toicKRDC-WUohQa_SePd-152" source="toicKRDC-WUohQa_SePd-170">
                    <mxGeometry relative="1" as="geometry">
                        <mxPoint x="250" y="911.5" as="targetPoint"/>
                    </mxGeometry>
                </mxCell>
                <mxCell id="toicKRDC-WUohQa_SePd-170" value="Management" style="rounded=0;whiteSpace=wrap;html=1;" vertex="1" parent="toicKRDC-WUohQa_SePd-152">
                    <mxGeometry x="60.92" y="882" width="130" height="60" as="geometry"/>
                </mxCell>
                <mxCell id="toicKRDC-WUohQa_SePd-171" style="edgeStyle=orthogonalEdgeStyle;rounded=0;orthogonalLoop=1;jettySize=auto;html=1;exitX=0;exitY=0.5;exitDx=0;exitDy=0;entryX=0;entryY=0.5;entryDx=0;entryDy=0;" edge="1" parent="toicKRDC-WUohQa_SePd-152" source="toicKRDC-WUohQa_SePd-173" target="toicKRDC-WUohQa_SePd-168">
                    <mxGeometry relative="1" as="geometry"/>
                </mxCell>
                <mxCell id="toicKRDC-WUohQa_SePd-172" style="edgeStyle=orthogonalEdgeStyle;rounded=0;orthogonalLoop=1;jettySize=auto;html=1;exitX=1;exitY=0.5;exitDx=0;exitDy=0;" edge="1" parent="toicKRDC-WUohQa_SePd-152" source="toicKRDC-WUohQa_SePd-173">
                    <mxGeometry relative="1" as="geometry">
                        <mxPoint x="480" y="1001.5" as="targetPoint"/>
                    </mxGeometry>
                </mxCell>
                <mxCell id="toicKRDC-WUohQa_SePd-173" value="Set Accounts Rights" style="rounded=0;whiteSpace=wrap;html=1;" vertex="1" parent="toicKRDC-WUohQa_SePd-152">
                    <mxGeometry x="60.92" y="972" width="130" height="60" as="geometry"/>
                </mxCell>
                <mxCell id="toicKRDC-WUohQa_SePd-174" value="History" style="rounded=0;whiteSpace=wrap;html=1;" vertex="1" parent="toicKRDC-WUohQa_SePd-152">
                    <mxGeometry x="53.5" y="620" width="130" height="60" as="geometry"/>
                </mxCell>
                <mxCell id="toicKRDC-WUohQa_SePd-175" style="edgeStyle=orthogonalEdgeStyle;rounded=0;orthogonalLoop=1;jettySize=auto;html=1;exitX=0;exitY=0.5;exitDx=0;exitDy=0;entryX=-0.003;entryY=0.583;entryDx=0;entryDy=0;entryPerimeter=0;" edge="1" parent="toicKRDC-WUohQa_SePd-152" source="toicKRDC-WUohQa_SePd-161" target="toicKRDC-WUohQa_SePd-174">
                    <mxGeometry relative="1" as="geometry">
                        <Array as="points">
                            <mxPoint x="30" y="386"/>
                            <mxPoint x="30" y="655"/>
                        </Array>
                    </mxGeometry>
                </mxCell>
                <mxCell id="toicKRDC-WUohQa_SePd-176" style="edgeStyle=orthogonalEdgeStyle;rounded=0;orthogonalLoop=1;jettySize=auto;html=1;exitX=0.5;exitY=1;exitDx=0;exitDy=0;entryX=0.5;entryY=0;entryDx=0;entryDy=0;" edge="1" parent="toicKRDC-WUohQa_SePd-152" source="toicKRDC-WUohQa_SePd-177" target="toicKRDC-WUohQa_SePd-168">
                    <mxGeometry relative="1" as="geometry"/>
                </mxCell>
                <mxCell id="toicKRDC-WUohQa_SePd-177" value="Notification" style="rounded=0;whiteSpace=wrap;html=1;" vertex="1" parent="toicKRDC-WUohQa_SePd-152">
                    <mxGeometry x="59.42" y="1067" width="130" height="60" as="geometry"/>
                </mxCell>
                <mxCell id="toicKRDC-WUohQa_SePd-178" value="Web sever" style="swimlane;whiteSpace=wrap;html=1;startSize=23;" vertex="1" parent="toicKRDC-WUohQa_SePd-151">
                    <mxGeometry x="210" y="20" width="200" height="1250" as="geometry"/>
                </mxCell>
                <mxCell id="toicKRDC-WUohQa_SePd-179" value="Send information for verification" style="rounded=0;whiteSpace=wrap;html=1;" vertex="1" parent="toicKRDC-WUohQa_SePd-178">
                    <mxGeometry x="35" y="110" width="120" height="60" as="geometry"/>
                </mxCell>
                <mxCell id="toicKRDC-WUohQa_SePd-180" value="Show DashBoard" style="rounded=0;whiteSpace=wrap;html=1;" vertex="1" parent="toicKRDC-WUohQa_SePd-178">
                    <mxGeometry x="43" y="536" width="130" height="60" as="geometry"/>
                </mxCell>
                <mxCell id="toicKRDC-WUohQa_SePd-181" value="Check information" style="rhombus;whiteSpace=wrap;html=1;" vertex="1" parent="toicKRDC-WUohQa_SePd-178">
                    <mxGeometry x="62.5" y="190" width="75" height="80" as="geometry"/>
                </mxCell>
                <mxCell id="toicKRDC-WUohQa_SePd-182" value="Select time range" style="rounded=0;whiteSpace=wrap;html=1;" vertex="1" parent="toicKRDC-WUohQa_SePd-178">
                    <mxGeometry x="43" y="620" width="130" height="60" as="geometry"/>
                </mxCell>
                <mxCell id="toicKRDC-WUohQa_SePd-183" style="edgeStyle=orthogonalEdgeStyle;rounded=0;orthogonalLoop=1;jettySize=auto;html=1;exitX=0.5;exitY=0;exitDx=0;exitDy=0;entryX=0.5;entryY=1;entryDx=0;entryDy=0;" edge="1" parent="toicKRDC-WUohQa_SePd-178" source="toicKRDC-WUohQa_SePd-184" target="toicKRDC-WUohQa_SePd-186">
                    <mxGeometry relative="1" as="geometry"/>
                </mxCell>
                <mxCell id="toicKRDC-WUohQa_SePd-184" value="Fetch data by time&lt;div&gt;period&lt;/div&gt;" style="rounded=0;whiteSpace=wrap;html=1;" vertex="1" parent="toicKRDC-WUohQa_SePd-178">
                    <mxGeometry x="43.92" y="797" width="130" height="60" as="geometry"/>
                </mxCell>
                <mxCell id="toicKRDC-WUohQa_SePd-185" value="Problem detected" style="rounded=0;whiteSpace=wrap;html=1;" vertex="1" parent="toicKRDC-WUohQa_SePd-178">
                    <mxGeometry x="35.92" y="1067" width="130" height="60" as="geometry"/>
                </mxCell>
                <mxCell id="toicKRDC-WUohQa_SePd-186" value="Display time period" style="rounded=0;whiteSpace=wrap;html=1;" vertex="1" parent="toicKRDC-WUohQa_SePd-178">
                    <mxGeometry x="43.920000000000016" y="710" width="130" height="60" as="geometry"/>
                </mxCell>
                <mxCell id="toicKRDC-WUohQa_SePd-187" value="Show Management" style="rounded=0;whiteSpace=wrap;html=1;" vertex="1" parent="toicKRDC-WUohQa_SePd-178">
                    <mxGeometry x="43" y="880" width="130" height="60" as="geometry"/>
                </mxCell>
                <mxCell id="toicKRDC-WUohQa_SePd-188" value="DataBase Sever" style="swimlane;whiteSpace=wrap;html=1;startSize=23;" vertex="1" parent="toicKRDC-WUohQa_SePd-151">
                    <mxGeometry x="410" y="20" width="200" height="1250" as="geometry"/>
                </mxCell>
                <mxCell id="toicKRDC-WUohQa_SePd-189" style="edgeStyle=orthogonalEdgeStyle;rounded=0;orthogonalLoop=1;jettySize=auto;html=1;exitX=0.5;exitY=1;exitDx=0;exitDy=0;entryX=0.5;entryY=0;entryDx=0;entryDy=0;" edge="1" parent="toicKRDC-WUohQa_SePd-188" source="toicKRDC-WUohQa_SePd-190">
                    <mxGeometry relative="1" as="geometry">
                        <mxPoint x="100.5" y="200" as="targetPoint"/>
                    </mxGeometry>
                </mxCell>
                <mxCell id="toicKRDC-WUohQa_SePd-190" value="Receive requests&amp;nbsp;" style="rounded=0;whiteSpace=wrap;html=1;" vertex="1" parent="toicKRDC-WUohQa_SePd-188">
                    <mxGeometry x="40" y="110" width="120" height="60" as="geometry"/>
                </mxCell>
                <mxCell id="toicKRDC-WUohQa_SePd-191" value="Database" style="shape=cylinder3;whiteSpace=wrap;html=1;boundedLbl=1;backgroundOutline=1;size=15;" vertex="1" parent="toicKRDC-WUohQa_SePd-188">
                    <mxGeometry x="73.25" y="526" width="71.5" height="70" as="geometry"/>
                </mxCell>
                <mxCell id="toicKRDC-WUohQa_SePd-192" value="Send information" style="rounded=0;whiteSpace=wrap;html=1;" vertex="1" parent="toicKRDC-WUohQa_SePd-188">
                    <mxGeometry x="40" y="200" width="120" height="60" as="geometry"/>
                </mxCell>
                <mxCell id="toicKRDC-WUohQa_SePd-193" value="Database" style="shape=cylinder3;whiteSpace=wrap;html=1;boundedLbl=1;backgroundOutline=1;size=15;" vertex="1" parent="toicKRDC-WUohQa_SePd-188">
                    <mxGeometry x="73.25" y="960" width="71.5" height="70" as="geometry"/>
                </mxCell>
                <mxCell id="toicKRDC-WUohQa_SePd-194" value="" style="endArrow=none;html=1;rounded=0;" edge="1" parent="toicKRDC-WUohQa_SePd-188">
                    <mxGeometry width="50" height="50" relative="1" as="geometry">
                        <mxPoint x="117.09" y="880" as="sourcePoint"/>
                        <mxPoint x="117.09" y="880" as="targetPoint"/>
                    </mxGeometry>
                </mxCell>
                <mxCell id="toicKRDC-WUohQa_SePd-195" value="Database" style="shape=cylinder3;whiteSpace=wrap;html=1;boundedLbl=1;backgroundOutline=1;size=15;" vertex="1" parent="toicKRDC-WUohQa_SePd-188">
                    <mxGeometry x="73.92" y="792" width="71.5" height="70" as="geometry"/>
                </mxCell>
                <mxCell id="toicKRDC-WUohQa_SePd-196" value="Request" style="rounded=0;whiteSpace=wrap;html=1;" vertex="1" parent="toicKRDC-WUohQa_SePd-188">
                    <mxGeometry x="44" y="620" width="130" height="60" as="geometry"/>
                </mxCell>
                <mxCell id="toicKRDC-WUohQa_SePd-197" style="edgeStyle=orthogonalEdgeStyle;rounded=0;orthogonalLoop=1;jettySize=auto;html=1;exitX=0.5;exitY=1;exitDx=0;exitDy=0;entryX=0.5;entryY=0;entryDx=0;entryDy=0;entryPerimeter=0;" edge="1" parent="toicKRDC-WUohQa_SePd-188" source="toicKRDC-WUohQa_SePd-196" target="toicKRDC-WUohQa_SePd-195">
                    <mxGeometry relative="1" as="geometry"/>
                </mxCell>
                <mxCell id="toicKRDC-WUohQa_SePd-198" value="AI Server" style="swimlane;whiteSpace=wrap;html=1;startSize=23;" vertex="1" parent="toicKRDC-WUohQa_SePd-151">
                    <mxGeometry x="610" y="20" width="190" height="1250" as="geometry"/>
                </mxCell>
                <mxCell id="toicKRDC-WUohQa_SePd-199" value="Check the wearing of helmets" style="rounded=0;whiteSpace=wrap;html=1;" vertex="1" parent="toicKRDC-WUohQa_SePd-198">
                    <mxGeometry x="33" y="556" width="130" height="60" as="geometry"/>
                </mxCell>
                <mxCell id="toicKRDC-WUohQa_SePd-200" value="detection helmet" style="rounded=0;whiteSpace=wrap;html=1;" vertex="1" parent="toicKRDC-WUohQa_SePd-198">
                    <mxGeometry x="33" y="466" width="130" height="60" as="geometry"/>
                </mxCell>
                <mxCell id="toicKRDC-WUohQa_SePd-201" style="edgeStyle=orthogonalEdgeStyle;rounded=0;orthogonalLoop=1;jettySize=auto;html=1;exitX=0.5;exitY=1;exitDx=0;exitDy=0;entryX=0.5;entryY=0;entryDx=0;entryDy=0;" edge="1" parent="toicKRDC-WUohQa_SePd-198" source="toicKRDC-WUohQa_SePd-200" target="toicKRDC-WUohQa_SePd-199">
                    <mxGeometry relative="1" as="geometry"/>
                </mxCell>
                <mxCell id="toicKRDC-WUohQa_SePd-202" style="edgeStyle=orthogonalEdgeStyle;rounded=0;orthogonalLoop=1;jettySize=auto;html=1;exitX=1;exitY=0.5;exitDx=0;exitDy=0;entryX=0;entryY=0.5;entryDx=0;entryDy=0;" edge="1" parent="toicKRDC-WUohQa_SePd-151" source="toicKRDC-WUohQa_SePd-155" target="toicKRDC-WUohQa_SePd-179">
                    <mxGeometry relative="1" as="geometry">
                        <mxPoint x="241" y="159.8571428571429" as="targetPoint"/>
                    </mxGeometry>
                </mxCell>
                <mxCell id="toicKRDC-WUohQa_SePd-203" style="edgeStyle=orthogonalEdgeStyle;rounded=0;orthogonalLoop=1;jettySize=auto;html=1;exitX=1;exitY=0.5;exitDx=0;exitDy=0;entryX=0;entryY=0.5;entryDx=0;entryDy=0;" edge="1" parent="toicKRDC-WUohQa_SePd-151" source="toicKRDC-WUohQa_SePd-179" target="toicKRDC-WUohQa_SePd-190">
                    <mxGeometry relative="1" as="geometry"/>
                </mxCell>
                <mxCell id="toicKRDC-WUohQa_SePd-204" style="edgeStyle=orthogonalEdgeStyle;rounded=0;orthogonalLoop=1;jettySize=auto;html=1;exitX=0;exitY=0.5;exitDx=0;exitDy=0;entryX=1;entryY=0.5;entryDx=0;entryDy=0;" edge="1" parent="toicKRDC-WUohQa_SePd-151" source="toicKRDC-WUohQa_SePd-200" target="toicKRDC-WUohQa_SePd-167">
                    <mxGeometry relative="1" as="geometry"/>
                </mxCell>
                <mxCell id="toicKRDC-WUohQa_SePd-205" style="edgeStyle=orthogonalEdgeStyle;rounded=0;orthogonalLoop=1;jettySize=auto;html=1;exitX=0;exitY=0.25;exitDx=0;exitDy=0;entryX=1;entryY=0;entryDx=0;entryDy=45;entryPerimeter=0;" edge="1" parent="toicKRDC-WUohQa_SePd-151" source="toicKRDC-WUohQa_SePd-199" target="toicKRDC-WUohQa_SePd-191">
                    <mxGeometry relative="1" as="geometry"/>
                </mxCell>
                <mxCell id="toicKRDC-WUohQa_SePd-206" style="edgeStyle=orthogonalEdgeStyle;rounded=0;orthogonalLoop=1;jettySize=auto;html=1;exitX=0;exitY=0.5;exitDx=0;exitDy=0;entryX=1.011;entryY=0.336;entryDx=0;entryDy=0;entryPerimeter=0;" edge="1" parent="toicKRDC-WUohQa_SePd-151" source="toicKRDC-WUohQa_SePd-181" target="toicKRDC-WUohQa_SePd-157">
                    <mxGeometry relative="1" as="geometry"/>
                </mxCell>
                <mxCell id="toicKRDC-WUohQa_SePd-207" style="edgeStyle=orthogonalEdgeStyle;rounded=0;orthogonalLoop=1;jettySize=auto;html=1;exitX=0;exitY=0.5;exitDx=0;exitDy=0;entryX=1;entryY=0.5;entryDx=0;entryDy=0;" edge="1" parent="toicKRDC-WUohQa_SePd-151" source="toicKRDC-WUohQa_SePd-192" target="toicKRDC-WUohQa_SePd-181">
                    <mxGeometry relative="1" as="geometry"/>
                </mxCell>
                <mxCell id="toicKRDC-WUohQa_SePd-208" style="edgeStyle=orthogonalEdgeStyle;rounded=0;orthogonalLoop=1;jettySize=auto;html=1;exitX=0.5;exitY=1;exitDx=0;exitDy=0;entryX=1;entryY=0.5;entryDx=0;entryDy=0;" edge="1" parent="toicKRDC-WUohQa_SePd-151" source="toicKRDC-WUohQa_SePd-181" target="toicKRDC-WUohQa_SePd-161">
                    <mxGeometry relative="1" as="geometry"/>
                </mxCell>
                <mxCell id="toicKRDC-WUohQa_SePd-209" style="edgeStyle=orthogonalEdgeStyle;rounded=0;orthogonalLoop=1;jettySize=auto;html=1;exitX=1;exitY=0.5;exitDx=0;exitDy=0;entryX=0;entryY=0.5;entryDx=0;entryDy=0;" edge="1" parent="toicKRDC-WUohQa_SePd-151" source="toicKRDC-WUohQa_SePd-166" target="toicKRDC-WUohQa_SePd-180">
                    <mxGeometry relative="1" as="geometry"/>
                </mxCell>
                <mxCell id="toicKRDC-WUohQa_SePd-210" style="edgeStyle=orthogonalEdgeStyle;rounded=0;orthogonalLoop=1;jettySize=auto;html=1;exitX=0;exitY=0.5;exitDx=0;exitDy=0;exitPerimeter=0;entryX=1.011;entryY=0.426;entryDx=0;entryDy=0;entryPerimeter=0;" edge="1" parent="toicKRDC-WUohQa_SePd-151" source="toicKRDC-WUohQa_SePd-191" target="toicKRDC-WUohQa_SePd-180">
                    <mxGeometry relative="1" as="geometry"/>
                </mxCell>
                <mxCell id="toicKRDC-WUohQa_SePd-211" style="edgeStyle=orthogonalEdgeStyle;rounded=0;orthogonalLoop=1;jettySize=auto;html=1;exitX=1;exitY=0.5;exitDx=0;exitDy=0;entryX=0;entryY=0.5;entryDx=0;entryDy=0;" edge="1" parent="toicKRDC-WUohQa_SePd-151" source="toicKRDC-WUohQa_SePd-174" target="toicKRDC-WUohQa_SePd-182">
                    <mxGeometry relative="1" as="geometry"/>
                </mxCell>
                <mxCell id="toicKRDC-WUohQa_SePd-212" value="" style="edgeStyle=orthogonalEdgeStyle;rounded=0;orthogonalLoop=1;jettySize=auto;html=1;" edge="1" parent="toicKRDC-WUohQa_SePd-151" source="toicKRDC-WUohQa_SePd-182" target="toicKRDC-WUohQa_SePd-196">
                    <mxGeometry relative="1" as="geometry"/>
                </mxCell>
                <mxCell id="toicKRDC-WUohQa_SePd-213" value="" style="edgeStyle=orthogonalEdgeStyle;rounded=0;orthogonalLoop=1;jettySize=auto;html=1;" edge="1" parent="toicKRDC-WUohQa_SePd-151" source="toicKRDC-WUohQa_SePd-195" target="toicKRDC-WUohQa_SePd-184">
                    <mxGeometry relative="1" as="geometry"/>
                </mxCell>
                <mxCell id="toicKRDC-WUohQa_SePd-214" style="edgeStyle=orthogonalEdgeStyle;rounded=0;orthogonalLoop=1;jettySize=auto;html=1;exitX=0;exitY=0.5;exitDx=0;exitDy=0;entryX=1;entryY=0.5;entryDx=0;entryDy=0;" edge="1" parent="toicKRDC-WUohQa_SePd-151" source="toicKRDC-WUohQa_SePd-185" target="toicKRDC-WUohQa_SePd-177">
                    <mxGeometry relative="1" as="geometry"/>
                </mxCell>
                <mxCell id="toicKRDC-WUohQa_SePd-215" style="edgeStyle=orthogonalEdgeStyle;rounded=0;orthogonalLoop=1;jettySize=auto;html=1;exitX=0.5;exitY=1;exitDx=0;exitDy=0;entryX=0.5;entryY=0;entryDx=0;entryDy=0;" edge="1" parent="toicKRDC-WUohQa_SePd-151" source="toicKRDC-WUohQa_SePd-187" target="toicKRDC-WUohQa_SePd-173">
                    <mxGeometry relative="1" as="geometry">
                        <Array as="points">
                            <mxPoint x="318" y="972"/>
                            <mxPoint x="126" y="972"/>
                        </Array>
                    </mxGeometry>
                </mxCell>
                <mxCell id="toicKRDC-WUohQa_SePd-216" value="No : ไม่พบข้อมูล" style="text;html=1;align=center;verticalAlign=middle;whiteSpace=wrap;rounded=0;" vertex="1" parent="1">
                    <mxGeometry x="1881" y="1433" width="119" height="30" as="geometry"/>
                </mxCell>
                <mxCell id="toicKRDC-WUohQa_SePd-217" value="Yes : ข้อมูลถูกต้อง" style="text;html=1;align=center;verticalAlign=middle;whiteSpace=wrap;rounded=0;" vertex="1" parent="1">
                    <mxGeometry x="2027" y="1491" width="100" height="30" as="geometry"/>
                </mxCell>
            </root>
        </mxGraphModel>
    </diagram>
    <diagram id="8647izJ6VQllM_pAcEoY" name="Security Officer">
        <mxGraphModel dx="2520" dy="1408" grid="1" gridSize="10" guides="1" tooltips="1" connect="1" arrows="1" fold="1" page="1" pageScale="1" pageWidth="850" pageHeight="1100" math="0" shadow="0">
            <root>
                <mxCell id="0"/>
                <mxCell id="1" parent="0"/>
                <mxCell id="MetSCnNrg7IDf0yFo5Ao-1" value="" style="swimlane;whiteSpace=wrap;html=1;" vertex="1" parent="1">
                    <mxGeometry x="120" y="100" width="610" height="510" as="geometry"/>
                </mxCell>
                <mxCell id="MetSCnNrg7IDf0yFo5Ao-2" value="Security Officer" style="swimlane;whiteSpace=wrap;html=1;startSize=23;" vertex="1" parent="MetSCnNrg7IDf0yFo5Ao-1">
                    <mxGeometry width="210" height="510" as="geometry"/>
                </mxCell>
                <mxCell id="MetSCnNrg7IDf0yFo5Ao-3" style="edgeStyle=orthogonalEdgeStyle;rounded=0;orthogonalLoop=1;jettySize=auto;html=1;exitX=0.5;exitY=1;exitDx=0;exitDy=0;entryX=0.5;entryY=0;entryDx=0;entryDy=0;" edge="1" parent="MetSCnNrg7IDf0yFo5Ao-2" source="MetSCnNrg7IDf0yFo5Ao-4" target="MetSCnNrg7IDf0yFo5Ao-5">
                    <mxGeometry relative="1" as="geometry"/>
                </mxCell>
                <mxCell id="MetSCnNrg7IDf0yFo5Ao-4" value="Start" style="rounded=1;whiteSpace=wrap;html=1;" vertex="1" parent="MetSCnNrg7IDf0yFo5Ao-2">
                    <mxGeometry x="30" y="30" width="130" height="60" as="geometry"/>
                </mxCell>
                <mxCell id="MetSCnNrg7IDf0yFo5Ao-5" value="Login" style="rounded=0;whiteSpace=wrap;html=1;" vertex="1" parent="MetSCnNrg7IDf0yFo5Ao-2">
                    <mxGeometry x="35" y="110" width="120" height="60" as="geometry"/>
                </mxCell>
                <mxCell id="MetSCnNrg7IDf0yFo5Ao-6" style="edgeStyle=orthogonalEdgeStyle;rounded=0;orthogonalLoop=1;jettySize=auto;html=1;exitX=0.5;exitY=0;exitDx=0;exitDy=0;entryX=0.5;entryY=1;entryDx=0;entryDy=0;" edge="1" parent="MetSCnNrg7IDf0yFo5Ao-2" source="MetSCnNrg7IDf0yFo5Ao-7" target="MetSCnNrg7IDf0yFo5Ao-5">
                    <mxGeometry relative="1" as="geometry"/>
                </mxCell>
                <mxCell id="MetSCnNrg7IDf0yFo5Ao-7" value="Error alert" style="rounded=0;whiteSpace=wrap;html=1;" vertex="1" parent="MetSCnNrg7IDf0yFo5Ao-2">
                    <mxGeometry x="35" y="300" width="120" height="60" as="geometry"/>
                </mxCell>
                <mxCell id="MetSCnNrg7IDf0yFo5Ao-8" value="Home Page" style="rounded=0;whiteSpace=wrap;html=1;" vertex="1" parent="MetSCnNrg7IDf0yFo5Ao-2">
                    <mxGeometry x="35" y="380" width="120" height="60" as="geometry"/>
                </mxCell>
                <mxCell id="MetSCnNrg7IDf0yFo5Ao-9" value="Web sever" style="swimlane;whiteSpace=wrap;html=1;startSize=23;" vertex="1" parent="MetSCnNrg7IDf0yFo5Ao-1">
                    <mxGeometry x="210" width="200" height="510" as="geometry"/>
                </mxCell>
                <mxCell id="MetSCnNrg7IDf0yFo5Ao-10" value="Send information for verification" style="rounded=0;whiteSpace=wrap;html=1;" vertex="1" parent="MetSCnNrg7IDf0yFo5Ao-9">
                    <mxGeometry x="35" y="110" width="120" height="60" as="geometry"/>
                </mxCell>
                <mxCell id="MetSCnNrg7IDf0yFo5Ao-11" value="Check information" style="rhombus;whiteSpace=wrap;html=1;" vertex="1" parent="MetSCnNrg7IDf0yFo5Ao-9">
                    <mxGeometry x="62.5" y="280" width="75" height="80" as="geometry"/>
                </mxCell>
                <mxCell id="MetSCnNrg7IDf0yFo5Ao-12" value="&amp;nbsp;not found" style="text;html=1;align=center;verticalAlign=middle;whiteSpace=wrap;rounded=0;" vertex="1" parent="MetSCnNrg7IDf0yFo5Ao-9">
                    <mxGeometry x="-30" y="290" width="119" height="30" as="geometry"/>
                </mxCell>
                <mxCell id="MetSCnNrg7IDf0yFo5Ao-13" value="DataBase Sever" style="swimlane;whiteSpace=wrap;html=1;startSize=23;" vertex="1" parent="MetSCnNrg7IDf0yFo5Ao-1">
                    <mxGeometry x="410" width="200" height="510" as="geometry"/>
                </mxCell>
                <mxCell id="MetSCnNrg7IDf0yFo5Ao-14" style="edgeStyle=orthogonalEdgeStyle;rounded=0;orthogonalLoop=1;jettySize=auto;html=1;exitX=0.5;exitY=1;exitDx=0;exitDy=0;entryX=0.5;entryY=0;entryDx=0;entryDy=0;" edge="1" parent="MetSCnNrg7IDf0yFo5Ao-13" source="MetSCnNrg7IDf0yFo5Ao-15">
                    <mxGeometry relative="1" as="geometry">
                        <mxPoint x="100.5" y="200" as="targetPoint"/>
                    </mxGeometry>
                </mxCell>
                <mxCell id="MetSCnNrg7IDf0yFo5Ao-15" value="Receive requests&amp;nbsp;" style="rounded=0;whiteSpace=wrap;html=1;" vertex="1" parent="MetSCnNrg7IDf0yFo5Ao-13">
                    <mxGeometry x="40" y="110" width="120" height="60" as="geometry"/>
                </mxCell>
                <mxCell id="MetSCnNrg7IDf0yFo5Ao-16" value="Send information" style="rounded=0;whiteSpace=wrap;html=1;" vertex="1" parent="MetSCnNrg7IDf0yFo5Ao-13">
                    <mxGeometry x="40" y="290" width="120" height="60" as="geometry"/>
                </mxCell>
                <mxCell id="MetSCnNrg7IDf0yFo5Ao-17" style="edgeStyle=orthogonalEdgeStyle;rounded=0;orthogonalLoop=1;jettySize=auto;html=1;exitX=0.5;exitY=1;exitDx=0;exitDy=0;exitPerimeter=0;entryX=0.5;entryY=0;entryDx=0;entryDy=0;" edge="1" parent="MetSCnNrg7IDf0yFo5Ao-13" source="MetSCnNrg7IDf0yFo5Ao-18" target="MetSCnNrg7IDf0yFo5Ao-16">
                    <mxGeometry relative="1" as="geometry"/>
                </mxCell>
                <mxCell id="MetSCnNrg7IDf0yFo5Ao-18" value="Retrieve" style="shape=cylinder3;whiteSpace=wrap;html=1;boundedLbl=1;backgroundOutline=1;size=15;" vertex="1" parent="MetSCnNrg7IDf0yFo5Ao-13">
                    <mxGeometry x="72.5" y="200" width="55" height="60" as="geometry"/>
                </mxCell>
                <mxCell id="MetSCnNrg7IDf0yFo5Ao-19" style="edgeStyle=orthogonalEdgeStyle;rounded=0;orthogonalLoop=1;jettySize=auto;html=1;exitX=1;exitY=0.5;exitDx=0;exitDy=0;entryX=0;entryY=0.5;entryDx=0;entryDy=0;" edge="1" parent="MetSCnNrg7IDf0yFo5Ao-1" source="MetSCnNrg7IDf0yFo5Ao-5" target="MetSCnNrg7IDf0yFo5Ao-10">
                    <mxGeometry relative="1" as="geometry">
                        <mxPoint x="241" y="159.8571428571429" as="targetPoint"/>
                    </mxGeometry>
                </mxCell>
                <mxCell id="MetSCnNrg7IDf0yFo5Ao-20" style="edgeStyle=orthogonalEdgeStyle;rounded=0;orthogonalLoop=1;jettySize=auto;html=1;exitX=1;exitY=0.5;exitDx=0;exitDy=0;entryX=0;entryY=0.5;entryDx=0;entryDy=0;" edge="1" parent="MetSCnNrg7IDf0yFo5Ao-1" source="MetSCnNrg7IDf0yFo5Ao-10" target="MetSCnNrg7IDf0yFo5Ao-15">
                    <mxGeometry relative="1" as="geometry"/>
                </mxCell>
                <mxCell id="MetSCnNrg7IDf0yFo5Ao-21" style="edgeStyle=orthogonalEdgeStyle;rounded=0;orthogonalLoop=1;jettySize=auto;html=1;exitX=0;exitY=0.5;exitDx=0;exitDy=0;entryX=1.011;entryY=0.336;entryDx=0;entryDy=0;entryPerimeter=0;" edge="1" parent="MetSCnNrg7IDf0yFo5Ao-1" source="MetSCnNrg7IDf0yFo5Ao-11" target="MetSCnNrg7IDf0yFo5Ao-7">
                    <mxGeometry relative="1" as="geometry"/>
                </mxCell>
                <mxCell id="MetSCnNrg7IDf0yFo5Ao-22" style="edgeStyle=orthogonalEdgeStyle;rounded=0;orthogonalLoop=1;jettySize=auto;html=1;exitX=0.5;exitY=1;exitDx=0;exitDy=0;entryX=1;entryY=0.5;entryDx=0;entryDy=0;" edge="1" parent="MetSCnNrg7IDf0yFo5Ao-1" source="MetSCnNrg7IDf0yFo5Ao-11" target="MetSCnNrg7IDf0yFo5Ao-8">
                    <mxGeometry relative="1" as="geometry"/>
                </mxCell>
                <mxCell id="MetSCnNrg7IDf0yFo5Ao-23" style="edgeStyle=orthogonalEdgeStyle;rounded=0;orthogonalLoop=1;jettySize=auto;html=1;exitX=0;exitY=0.5;exitDx=0;exitDy=0;entryX=1;entryY=0.5;entryDx=0;entryDy=0;" edge="1" parent="MetSCnNrg7IDf0yFo5Ao-1" source="MetSCnNrg7IDf0yFo5Ao-16" target="MetSCnNrg7IDf0yFo5Ao-11">
                    <mxGeometry relative="1" as="geometry"/>
                </mxCell>
                <mxCell id="MetSCnNrg7IDf0yFo5Ao-24" value="" style="endArrow=none;html=1;rounded=0;" edge="1" parent="1">
                    <mxGeometry width="50" height="50" relative="1" as="geometry">
                        <mxPoint x="850" y="916" as="sourcePoint"/>
                        <mxPoint x="850" y="916" as="targetPoint"/>
                    </mxGeometry>
                </mxCell>
                <mxCell id="MetSCnNrg7IDf0yFo5Ao-25" value="&lt;span style=&quot;color: rgba(0, 0, 0, 0); font-family: monospace; font-size: 0px; text-align: start; text-wrap-mode: nowrap;&quot;&gt;%3CmxGraphModel%3E%3Croot%3E%3CmxCell%20id%3D%220%22%2F%3E%3CmxCell%20id%3D%221%22%20parent%3D%220%22%2F%3E%3CmxCell%20id%3D%222%22%20value%3D%22Yes%20%3A%20correct%22%20style%3D%22text%3Bhtml%3D1%3Balign%3Dcenter%3BverticalAlign%3Dmiddle%3BwhiteSpace%3Dwrap%3Brounded%3D0%3B%22%20vertex%3D%221%22%20parent%3D%221%22%3E%3CmxGeometry%20x%3D%221202%22%20y%3D%22436%22%20width%3D%22100%22%20height%3D%2230%22%20as%3D%22geometry%22%2F%3E%3C%2FmxCell%3E%3C%2Froot%3E%3C%2FmxGraphModel%3E&lt;/span&gt;" style="text;html=1;align=center;verticalAlign=middle;whiteSpace=wrap;rounded=0;" vertex="1" parent="1">
                    <mxGeometry x="441" y="456" width="100" height="30" as="geometry"/>
                </mxCell>
                <mxCell id="MetSCnNrg7IDf0yFo5Ao-26" value="" style="swimlane;whiteSpace=wrap;html=1;" vertex="1" parent="1">
                    <mxGeometry x="836" y="100" width="610" height="360" as="geometry"/>
                </mxCell>
                <mxCell id="MetSCnNrg7IDf0yFo5Ao-27" value="Security Officer" style="swimlane;whiteSpace=wrap;html=1;startSize=23;" vertex="1" parent="MetSCnNrg7IDf0yFo5Ao-26">
                    <mxGeometry width="210" height="360" as="geometry"/>
                </mxCell>
                <mxCell id="MetSCnNrg7IDf0yFo5Ao-28" style="edgeStyle=orthogonalEdgeStyle;rounded=0;orthogonalLoop=1;jettySize=auto;html=1;exitX=0.5;exitY=1;exitDx=0;exitDy=0;" edge="1" parent="MetSCnNrg7IDf0yFo5Ao-27" source="MetSCnNrg7IDf0yFo5Ao-29">
                    <mxGeometry relative="1" as="geometry">
                        <mxPoint x="95.66666666666697" y="160" as="targetPoint"/>
                    </mxGeometry>
                </mxCell>
                <mxCell id="MetSCnNrg7IDf0yFo5Ao-29" value="Start" style="rounded=1;whiteSpace=wrap;html=1;" vertex="1" parent="MetSCnNrg7IDf0yFo5Ao-27">
                    <mxGeometry x="30" y="30" width="130" height="60" as="geometry"/>
                </mxCell>
                <mxCell id="MetSCnNrg7IDf0yFo5Ao-30" style="edgeStyle=orthogonalEdgeStyle;rounded=0;orthogonalLoop=1;jettySize=auto;html=1;exitX=1;exitY=0.5;exitDx=0;exitDy=0;" edge="1" parent="MetSCnNrg7IDf0yFo5Ao-27" source="MetSCnNrg7IDf0yFo5Ao-31">
                    <mxGeometry relative="1" as="geometry">
                        <mxPoint x="233" y="191" as="targetPoint"/>
                    </mxGeometry>
                </mxCell>
                <mxCell id="MetSCnNrg7IDf0yFo5Ao-31" value="DashBoard" style="rounded=0;whiteSpace=wrap;html=1;" vertex="1" parent="MetSCnNrg7IDf0yFo5Ao-27">
                    <mxGeometry x="38" y="161" width="120" height="60" as="geometry"/>
                </mxCell>
                <mxCell id="MetSCnNrg7IDf0yFo5Ao-32" value="Web sever" style="swimlane;whiteSpace=wrap;html=1;startSize=23;" vertex="1" parent="MetSCnNrg7IDf0yFo5Ao-26">
                    <mxGeometry x="210" width="200" height="360" as="geometry"/>
                </mxCell>
                <mxCell id="MetSCnNrg7IDf0yFo5Ao-33" value="" style="edgeStyle=orthogonalEdgeStyle;rounded=0;orthogonalLoop=1;jettySize=auto;html=1;" edge="1" parent="MetSCnNrg7IDf0yFo5Ao-32" source="MetSCnNrg7IDf0yFo5Ao-34" target="MetSCnNrg7IDf0yFo5Ao-35">
                    <mxGeometry relative="1" as="geometry"/>
                </mxCell>
                <mxCell id="MetSCnNrg7IDf0yFo5Ao-34" value="Show DashBoard" style="rounded=0;whiteSpace=wrap;html=1;" vertex="1" parent="MetSCnNrg7IDf0yFo5Ao-32">
                    <mxGeometry x="28" y="156" width="120" height="60" as="geometry"/>
                </mxCell>
                <mxCell id="MetSCnNrg7IDf0yFo5Ao-35" value="End" style="rounded=1;whiteSpace=wrap;html=1;" vertex="1" parent="MetSCnNrg7IDf0yFo5Ao-32">
                    <mxGeometry x="27" y="264" width="120" height="60" as="geometry"/>
                </mxCell>
                <mxCell id="MetSCnNrg7IDf0yFo5Ao-36" value="DataBase Sever" style="swimlane;whiteSpace=wrap;html=1;startSize=23;" vertex="1" parent="MetSCnNrg7IDf0yFo5Ao-26">
                    <mxGeometry x="410" width="200" height="360" as="geometry"/>
                </mxCell>
                <mxCell id="MetSCnNrg7IDf0yFo5Ao-37" style="edgeStyle=orthogonalEdgeStyle;rounded=0;orthogonalLoop=1;jettySize=auto;html=1;exitX=0;exitY=0.5;exitDx=0;exitDy=0;exitPerimeter=0;" edge="1" parent="MetSCnNrg7IDf0yFo5Ao-36" source="MetSCnNrg7IDf0yFo5Ao-38">
                    <mxGeometry relative="1" as="geometry">
                        <mxPoint x="-47" y="180.83333333333348" as="targetPoint"/>
                    </mxGeometry>
                </mxCell>
                <mxCell id="MetSCnNrg7IDf0yFo5Ao-38" value="Database" style="shape=cylinder3;whiteSpace=wrap;html=1;boundedLbl=1;backgroundOutline=1;size=15;" vertex="1" parent="MetSCnNrg7IDf0yFo5Ao-36">
                    <mxGeometry x="63" y="146" width="70" height="70" as="geometry"/>
                </mxCell>
                <mxCell id="MetSCnNrg7IDf0yFo5Ao-39" value="Ai Sever" style="swimlane;whiteSpace=wrap;html=1;startSize=23;" vertex="1" parent="1">
                    <mxGeometry x="1446" y="100" width="200" height="360" as="geometry"/>
                </mxCell>
                <mxCell id="MetSCnNrg7IDf0yFo5Ao-40" style="edgeStyle=orthogonalEdgeStyle;rounded=0;orthogonalLoop=1;jettySize=auto;html=1;exitX=0.5;exitY=1;exitDx=0;exitDy=0;entryX=0.5;entryY=0;entryDx=0;entryDy=0;" edge="1" parent="MetSCnNrg7IDf0yFo5Ao-39" source="MetSCnNrg7IDf0yFo5Ao-41" target="MetSCnNrg7IDf0yFo5Ao-42">
                    <mxGeometry relative="1" as="geometry"/>
                </mxCell>
                <mxCell id="MetSCnNrg7IDf0yFo5Ao-41" value="Detection helmet" style="rounded=0;whiteSpace=wrap;html=1;" vertex="1" parent="MetSCnNrg7IDf0yFo5Ao-39">
                    <mxGeometry x="43" y="56" width="120" height="60" as="geometry"/>
                </mxCell>
                <mxCell id="MetSCnNrg7IDf0yFo5Ao-42" value="Check the wearing of&lt;div&gt;helmets&lt;/div&gt;" style="rounded=0;whiteSpace=wrap;html=1;" vertex="1" parent="MetSCnNrg7IDf0yFo5Ao-39">
                    <mxGeometry x="43" y="151" width="120" height="60" as="geometry"/>
                </mxCell>
                <mxCell id="MetSCnNrg7IDf0yFo5Ao-43" style="edgeStyle=orthogonalEdgeStyle;rounded=0;orthogonalLoop=1;jettySize=auto;html=1;exitX=0;exitY=0.5;exitDx=0;exitDy=0;entryX=1;entryY=0.5;entryDx=0;entryDy=0;entryPerimeter=0;" edge="1" parent="1" source="MetSCnNrg7IDf0yFo5Ao-42" target="MetSCnNrg7IDf0yFo5Ao-38">
                    <mxGeometry relative="1" as="geometry">
                        <mxPoint x="1389" y="280.8333333333335" as="targetPoint"/>
                    </mxGeometry>
                </mxCell>
                <mxCell id="MetSCnNrg7IDf0yFo5Ao-44" value="" style="swimlane;whiteSpace=wrap;html=1;" vertex="1" parent="1">
                    <mxGeometry x="120" y="690" width="610" height="310" as="geometry"/>
                </mxCell>
                <mxCell id="MetSCnNrg7IDf0yFo5Ao-45" value="Security Officer" style="swimlane;whiteSpace=wrap;html=1;startSize=23;" vertex="1" parent="MetSCnNrg7IDf0yFo5Ao-44">
                    <mxGeometry width="210" height="310" as="geometry"/>
                </mxCell>
                <mxCell id="MetSCnNrg7IDf0yFo5Ao-46" style="edgeStyle=orthogonalEdgeStyle;rounded=0;orthogonalLoop=1;jettySize=auto;html=1;exitX=0.5;exitY=1;exitDx=0;exitDy=0;entryX=0.5;entryY=0;entryDx=0;entryDy=0;" edge="1" parent="MetSCnNrg7IDf0yFo5Ao-45" source="MetSCnNrg7IDf0yFo5Ao-47" target="MetSCnNrg7IDf0yFo5Ao-48">
                    <mxGeometry relative="1" as="geometry"/>
                </mxCell>
                <mxCell id="MetSCnNrg7IDf0yFo5Ao-47" value="Start" style="rounded=1;whiteSpace=wrap;html=1;" vertex="1" parent="MetSCnNrg7IDf0yFo5Ao-45">
                    <mxGeometry x="30" y="30" width="130" height="60" as="geometry"/>
                </mxCell>
                <mxCell id="MetSCnNrg7IDf0yFo5Ao-48" value="LivePage" style="rounded=0;whiteSpace=wrap;html=1;" vertex="1" parent="MetSCnNrg7IDf0yFo5Ao-45">
                    <mxGeometry x="35" y="110" width="120" height="60" as="geometry"/>
                </mxCell>
                <mxCell id="MetSCnNrg7IDf0yFo5Ao-49" value="Web sever" style="swimlane;whiteSpace=wrap;html=1;startSize=23;" vertex="1" parent="MetSCnNrg7IDf0yFo5Ao-44">
                    <mxGeometry x="210" width="200" height="310" as="geometry"/>
                </mxCell>
                <mxCell id="MetSCnNrg7IDf0yFo5Ao-50" style="edgeStyle=orthogonalEdgeStyle;rounded=0;orthogonalLoop=1;jettySize=auto;html=1;exitX=0.5;exitY=1;exitDx=0;exitDy=0;entryX=0.5;entryY=0;entryDx=0;entryDy=0;" edge="1" parent="MetSCnNrg7IDf0yFo5Ao-49" source="MetSCnNrg7IDf0yFo5Ao-51" target="MetSCnNrg7IDf0yFo5Ao-52">
                    <mxGeometry relative="1" as="geometry"/>
                </mxCell>
                <mxCell id="MetSCnNrg7IDf0yFo5Ao-51" value="Show Live" style="rounded=0;whiteSpace=wrap;html=1;" vertex="1" parent="MetSCnNrg7IDf0yFo5Ao-49">
                    <mxGeometry x="35" y="110" width="120" height="60" as="geometry"/>
                </mxCell>
                <mxCell id="MetSCnNrg7IDf0yFo5Ao-52" value="End" style="rounded=1;whiteSpace=wrap;html=1;" vertex="1" parent="MetSCnNrg7IDf0yFo5Ao-49">
                    <mxGeometry x="35" y="210" width="120" height="60" as="geometry"/>
                </mxCell>
                <mxCell id="MetSCnNrg7IDf0yFo5Ao-53" value="Ai Server" style="swimlane;whiteSpace=wrap;html=1;startSize=23;" vertex="1" parent="MetSCnNrg7IDf0yFo5Ao-44">
                    <mxGeometry x="410" width="200" height="310" as="geometry"/>
                </mxCell>
                <mxCell id="MetSCnNrg7IDf0yFo5Ao-54" value="detection helmet" style="rounded=0;whiteSpace=wrap;html=1;" vertex="1" parent="MetSCnNrg7IDf0yFo5Ao-53">
                    <mxGeometry x="35" y="110" width="130" height="60" as="geometry"/>
                </mxCell>
                <mxCell id="MetSCnNrg7IDf0yFo5Ao-55" style="edgeStyle=orthogonalEdgeStyle;rounded=0;orthogonalLoop=1;jettySize=auto;html=1;exitX=0;exitY=0.5;exitDx=0;exitDy=0;entryX=1;entryY=0.5;entryDx=0;entryDy=0;" edge="1" parent="MetSCnNrg7IDf0yFo5Ao-44" source="MetSCnNrg7IDf0yFo5Ao-54" target="MetSCnNrg7IDf0yFo5Ao-51">
                    <mxGeometry relative="1" as="geometry"/>
                </mxCell>
                <mxCell id="MetSCnNrg7IDf0yFo5Ao-56" style="edgeStyle=orthogonalEdgeStyle;rounded=0;orthogonalLoop=1;jettySize=auto;html=1;exitX=1;exitY=0.5;exitDx=0;exitDy=0;entryX=0;entryY=0.5;entryDx=0;entryDy=0;" edge="1" parent="MetSCnNrg7IDf0yFo5Ao-44" source="MetSCnNrg7IDf0yFo5Ao-48" target="MetSCnNrg7IDf0yFo5Ao-51">
                    <mxGeometry relative="1" as="geometry"/>
                </mxCell>
                <mxCell id="MetSCnNrg7IDf0yFo5Ao-57" value="" style="swimlane;whiteSpace=wrap;html=1;" vertex="1" parent="1">
                    <mxGeometry x="835" y="530" width="610" height="440" as="geometry"/>
                </mxCell>
                <mxCell id="MetSCnNrg7IDf0yFo5Ao-58" value="Security Officer" style="swimlane;whiteSpace=wrap;html=1;startSize=23;" vertex="1" parent="MetSCnNrg7IDf0yFo5Ao-57">
                    <mxGeometry width="210" height="440" as="geometry"/>
                </mxCell>
                <mxCell id="MetSCnNrg7IDf0yFo5Ao-59" style="edgeStyle=orthogonalEdgeStyle;rounded=0;orthogonalLoop=1;jettySize=auto;html=1;exitX=0.5;exitY=1;exitDx=0;exitDy=0;" edge="1" parent="MetSCnNrg7IDf0yFo5Ao-58" source="MetSCnNrg7IDf0yFo5Ao-60">
                    <mxGeometry relative="1" as="geometry">
                        <mxPoint x="95.66666666666697" y="160" as="targetPoint"/>
                    </mxGeometry>
                </mxCell>
                <mxCell id="MetSCnNrg7IDf0yFo5Ao-60" value="Start" style="rounded=1;whiteSpace=wrap;html=1;" vertex="1" parent="MetSCnNrg7IDf0yFo5Ao-58">
                    <mxGeometry x="30" y="30" width="130" height="60" as="geometry"/>
                </mxCell>
                <mxCell id="MetSCnNrg7IDf0yFo5Ao-61" style="edgeStyle=orthogonalEdgeStyle;rounded=0;orthogonalLoop=1;jettySize=auto;html=1;exitX=1;exitY=0.5;exitDx=0;exitDy=0;" edge="1" parent="MetSCnNrg7IDf0yFo5Ao-58" source="MetSCnNrg7IDf0yFo5Ao-62">
                    <mxGeometry relative="1" as="geometry">
                        <mxPoint x="233" y="191" as="targetPoint"/>
                    </mxGeometry>
                </mxCell>
                <mxCell id="MetSCnNrg7IDf0yFo5Ao-62" value="History" style="rounded=0;whiteSpace=wrap;html=1;" vertex="1" parent="MetSCnNrg7IDf0yFo5Ao-58">
                    <mxGeometry x="38" y="161" width="120" height="60" as="geometry"/>
                </mxCell>
                <mxCell id="MetSCnNrg7IDf0yFo5Ao-63" value="End" style="rounded=1;whiteSpace=wrap;html=1;" vertex="1" parent="MetSCnNrg7IDf0yFo5Ao-58">
                    <mxGeometry x="40" y="340" width="120" height="60" as="geometry"/>
                </mxCell>
                <mxCell id="MetSCnNrg7IDf0yFo5Ao-64" value="Web sever" style="swimlane;whiteSpace=wrap;html=1;startSize=23;" vertex="1" parent="MetSCnNrg7IDf0yFo5Ao-57">
                    <mxGeometry x="210" width="200" height="440" as="geometry"/>
                </mxCell>
                <mxCell id="MetSCnNrg7IDf0yFo5Ao-65" value="Select time range" style="rounded=0;whiteSpace=wrap;html=1;" vertex="1" parent="MetSCnNrg7IDf0yFo5Ao-64">
                    <mxGeometry x="28" y="156" width="120" height="60" as="geometry"/>
                </mxCell>
                <mxCell id="MetSCnNrg7IDf0yFo5Ao-66" value="" style="edgeStyle=orthogonalEdgeStyle;rounded=0;orthogonalLoop=1;jettySize=auto;html=1;" edge="1" parent="MetSCnNrg7IDf0yFo5Ao-64" source="MetSCnNrg7IDf0yFo5Ao-67" target="MetSCnNrg7IDf0yFo5Ao-68">
                    <mxGeometry relative="1" as="geometry"/>
                </mxCell>
                <mxCell id="MetSCnNrg7IDf0yFo5Ao-67" value="Fetch data by time&lt;div&gt;period&lt;/div&gt;" style="rounded=0;whiteSpace=wrap;html=1;" vertex="1" parent="MetSCnNrg7IDf0yFo5Ao-64">
                    <mxGeometry x="27" y="340" width="130" height="60" as="geometry"/>
                </mxCell>
                <mxCell id="MetSCnNrg7IDf0yFo5Ao-68" value="Display time period" style="rounded=0;whiteSpace=wrap;html=1;" vertex="1" parent="MetSCnNrg7IDf0yFo5Ao-64">
                    <mxGeometry x="28" y="250" width="130" height="60" as="geometry"/>
                </mxCell>
                <mxCell id="MetSCnNrg7IDf0yFo5Ao-69" value="DataBase Sever" style="swimlane;whiteSpace=wrap;html=1;startSize=23;" vertex="1" parent="MetSCnNrg7IDf0yFo5Ao-57">
                    <mxGeometry x="410" width="200" height="440" as="geometry"/>
                </mxCell>
                <mxCell id="MetSCnNrg7IDf0yFo5Ao-70" value="Database" style="shape=cylinder3;whiteSpace=wrap;html=1;boundedLbl=1;backgroundOutline=1;size=15;" vertex="1" parent="MetSCnNrg7IDf0yFo5Ao-69">
                    <mxGeometry x="57" y="335" width="70" height="70" as="geometry"/>
                </mxCell>
                <mxCell id="MetSCnNrg7IDf0yFo5Ao-71" value="Request" style="rounded=0;whiteSpace=wrap;html=1;" vertex="1" parent="MetSCnNrg7IDf0yFo5Ao-69">
                    <mxGeometry x="32" y="156" width="120" height="60" as="geometry"/>
                </mxCell>
                <mxCell id="MetSCnNrg7IDf0yFo5Ao-72" style="edgeStyle=orthogonalEdgeStyle;rounded=0;orthogonalLoop=1;jettySize=auto;html=1;exitX=0.5;exitY=1;exitDx=0;exitDy=0;entryX=0.5;entryY=0;entryDx=0;entryDy=0;entryPerimeter=0;" edge="1" parent="MetSCnNrg7IDf0yFo5Ao-69" source="MetSCnNrg7IDf0yFo5Ao-71" target="MetSCnNrg7IDf0yFo5Ao-70">
                    <mxGeometry relative="1" as="geometry"/>
                </mxCell>
                <mxCell id="MetSCnNrg7IDf0yFo5Ao-73" value="" style="edgeStyle=orthogonalEdgeStyle;rounded=0;orthogonalLoop=1;jettySize=auto;html=1;" edge="1" parent="MetSCnNrg7IDf0yFo5Ao-57" source="MetSCnNrg7IDf0yFo5Ao-65" target="MetSCnNrg7IDf0yFo5Ao-71">
                    <mxGeometry relative="1" as="geometry"/>
                </mxCell>
                <mxCell id="MetSCnNrg7IDf0yFo5Ao-74" value="" style="edgeStyle=orthogonalEdgeStyle;rounded=0;orthogonalLoop=1;jettySize=auto;html=1;" edge="1" parent="MetSCnNrg7IDf0yFo5Ao-57" source="MetSCnNrg7IDf0yFo5Ao-70" target="MetSCnNrg7IDf0yFo5Ao-67">
                    <mxGeometry relative="1" as="geometry"/>
                </mxCell>
                <mxCell id="MetSCnNrg7IDf0yFo5Ao-75" style="edgeStyle=orthogonalEdgeStyle;rounded=0;orthogonalLoop=1;jettySize=auto;html=1;exitX=0;exitY=0.5;exitDx=0;exitDy=0;entryX=0.5;entryY=0;entryDx=0;entryDy=0;" edge="1" parent="MetSCnNrg7IDf0yFo5Ao-57" source="MetSCnNrg7IDf0yFo5Ao-68" target="MetSCnNrg7IDf0yFo5Ao-63">
                    <mxGeometry relative="1" as="geometry"/>
                </mxCell>
                <mxCell id="MetSCnNrg7IDf0yFo5Ao-76" value="Ai Sever" style="swimlane;whiteSpace=wrap;html=1;startSize=23;" vertex="1" parent="1">
                    <mxGeometry x="1445" y="530" width="200" height="440" as="geometry"/>
                </mxCell>
                <mxCell id="MetSCnNrg7IDf0yFo5Ao-77" style="edgeStyle=orthogonalEdgeStyle;rounded=0;orthogonalLoop=1;jettySize=auto;html=1;exitX=0.5;exitY=1;exitDx=0;exitDy=0;entryX=0.5;entryY=0;entryDx=0;entryDy=0;" edge="1" parent="MetSCnNrg7IDf0yFo5Ao-76" source="MetSCnNrg7IDf0yFo5Ao-78" target="MetSCnNrg7IDf0yFo5Ao-79">
                    <mxGeometry relative="1" as="geometry"/>
                </mxCell>
                <mxCell id="MetSCnNrg7IDf0yFo5Ao-78" value="Detection helmet" style="rounded=0;whiteSpace=wrap;html=1;" vertex="1" parent="MetSCnNrg7IDf0yFo5Ao-76">
                    <mxGeometry x="43" y="56" width="120" height="60" as="geometry"/>
                </mxCell>
                <mxCell id="MetSCnNrg7IDf0yFo5Ao-79" value="Check the wearing of&lt;div&gt;helmets&lt;/div&gt;" style="rounded=0;whiteSpace=wrap;html=1;" vertex="1" parent="MetSCnNrg7IDf0yFo5Ao-76">
                    <mxGeometry x="43" y="340" width="120" height="60" as="geometry"/>
                </mxCell>
                <mxCell id="MetSCnNrg7IDf0yFo5Ao-80" style="edgeStyle=orthogonalEdgeStyle;rounded=0;orthogonalLoop=1;jettySize=auto;html=1;exitX=0;exitY=0.5;exitDx=0;exitDy=0;entryX=1;entryY=0.5;entryDx=0;entryDy=0;entryPerimeter=0;" edge="1" parent="1" source="MetSCnNrg7IDf0yFo5Ao-79" target="MetSCnNrg7IDf0yFo5Ao-70">
                    <mxGeometry relative="1" as="geometry">
                        <mxPoint x="1388" y="710.8333333333335" as="targetPoint"/>
                    </mxGeometry>
                </mxCell>
                <mxCell id="MetSCnNrg7IDf0yFo5Ao-81" value="" style="swimlane;whiteSpace=wrap;html=1;" vertex="1" parent="1">
                    <mxGeometry x="1750" y="100" width="611" height="440" as="geometry"/>
                </mxCell>
                <mxCell id="MetSCnNrg7IDf0yFo5Ao-82" value="Security Officer" style="swimlane;whiteSpace=wrap;html=1;startSize=23;" vertex="1" parent="MetSCnNrg7IDf0yFo5Ao-81">
                    <mxGeometry width="210" height="440" as="geometry"/>
                </mxCell>
                <mxCell id="MetSCnNrg7IDf0yFo5Ao-83" style="edgeStyle=orthogonalEdgeStyle;rounded=0;orthogonalLoop=1;jettySize=auto;html=1;exitX=1;exitY=0.5;exitDx=0;exitDy=0;" edge="1" parent="MetSCnNrg7IDf0yFo5Ao-82" source="MetSCnNrg7IDf0yFo5Ao-84">
                    <mxGeometry relative="1" as="geometry">
                        <mxPoint x="450" y="89.56521739130449" as="targetPoint"/>
                    </mxGeometry>
                </mxCell>
                <mxCell id="MetSCnNrg7IDf0yFo5Ao-84" value="Start" style="rounded=1;whiteSpace=wrap;html=1;" vertex="1" parent="MetSCnNrg7IDf0yFo5Ao-82">
                    <mxGeometry x="40" y="60" width="130" height="60" as="geometry"/>
                </mxCell>
                <mxCell id="MetSCnNrg7IDf0yFo5Ao-85" value="End" style="rounded=1;whiteSpace=wrap;html=1;" vertex="1" parent="MetSCnNrg7IDf0yFo5Ao-82">
                    <mxGeometry x="40" y="360" width="120" height="60" as="geometry"/>
                </mxCell>
                <mxCell id="MetSCnNrg7IDf0yFo5Ao-86" value="Web sever" style="swimlane;whiteSpace=wrap;html=1;startSize=23;" vertex="1" parent="MetSCnNrg7IDf0yFo5Ao-81">
                    <mxGeometry x="210" width="200" height="440" as="geometry"/>
                </mxCell>
                <mxCell id="MetSCnNrg7IDf0yFo5Ao-87" value="notification" style="rounded=0;whiteSpace=wrap;html=1;" vertex="1" parent="MetSCnNrg7IDf0yFo5Ao-86">
                    <mxGeometry x="38" y="360" width="130" height="60" as="geometry"/>
                </mxCell>
                <mxCell id="MetSCnNrg7IDf0yFo5Ao-88" value="DataBase Sever" style="swimlane;whiteSpace=wrap;html=1;startSize=23;" vertex="1" parent="MetSCnNrg7IDf0yFo5Ao-81">
                    <mxGeometry x="410" width="201" height="440" as="geometry"/>
                </mxCell>
                <mxCell id="MetSCnNrg7IDf0yFo5Ao-89" value="Ai Sever" style="swimlane;whiteSpace=wrap;html=1;startSize=23;" vertex="1" parent="MetSCnNrg7IDf0yFo5Ao-88">
                    <mxGeometry x="1" width="200" height="440" as="geometry"/>
                </mxCell>
                <mxCell id="MetSCnNrg7IDf0yFo5Ao-90" value="" style="edgeStyle=orthogonalEdgeStyle;rounded=0;orthogonalLoop=1;jettySize=auto;html=1;" edge="1" parent="MetSCnNrg7IDf0yFo5Ao-89" source="MetSCnNrg7IDf0yFo5Ao-91" target="MetSCnNrg7IDf0yFo5Ao-93">
                    <mxGeometry relative="1" as="geometry"/>
                </mxCell>
                <mxCell id="MetSCnNrg7IDf0yFo5Ao-91" value="Detection helmet" style="rounded=0;whiteSpace=wrap;html=1;" vertex="1" parent="MetSCnNrg7IDf0yFo5Ao-89">
                    <mxGeometry x="43" y="56" width="127" height="60" as="geometry"/>
                </mxCell>
                <mxCell id="MetSCnNrg7IDf0yFo5Ao-92" value="" style="edgeStyle=orthogonalEdgeStyle;rounded=0;orthogonalLoop=1;jettySize=auto;html=1;" edge="1" parent="MetSCnNrg7IDf0yFo5Ao-89" source="MetSCnNrg7IDf0yFo5Ao-93" target="MetSCnNrg7IDf0yFo5Ao-95">
                    <mxGeometry relative="1" as="geometry"/>
                </mxCell>
                <mxCell id="MetSCnNrg7IDf0yFo5Ao-93" value="Check the wearing of helmets" style="rounded=0;whiteSpace=wrap;html=1;" vertex="1" parent="MetSCnNrg7IDf0yFo5Ao-89">
                    <mxGeometry x="41.5" y="150" width="130" height="60" as="geometry"/>
                </mxCell>
                <mxCell id="MetSCnNrg7IDf0yFo5Ao-94" value="" style="edgeStyle=orthogonalEdgeStyle;rounded=0;orthogonalLoop=1;jettySize=auto;html=1;" edge="1" parent="MetSCnNrg7IDf0yFo5Ao-89" source="MetSCnNrg7IDf0yFo5Ao-95" target="MetSCnNrg7IDf0yFo5Ao-96">
                    <mxGeometry relative="1" as="geometry"/>
                </mxCell>
                <mxCell id="MetSCnNrg7IDf0yFo5Ao-95" value="people not wearing helmets" style="rounded=0;whiteSpace=wrap;html=1;" vertex="1" parent="MetSCnNrg7IDf0yFo5Ao-89">
                    <mxGeometry x="41.5" y="250" width="130" height="60" as="geometry"/>
                </mxCell>
                <mxCell id="MetSCnNrg7IDf0yFo5Ao-96" value="Violations found" style="rounded=0;whiteSpace=wrap;html=1;" vertex="1" parent="MetSCnNrg7IDf0yFo5Ao-89">
                    <mxGeometry x="41.5" y="360" width="130" height="60" as="geometry"/>
                </mxCell>
                <mxCell id="MetSCnNrg7IDf0yFo5Ao-97" style="edgeStyle=orthogonalEdgeStyle;rounded=0;orthogonalLoop=1;jettySize=auto;html=1;exitX=0;exitY=0.5;exitDx=0;exitDy=0;entryX=1;entryY=0.5;entryDx=0;entryDy=0;" edge="1" parent="MetSCnNrg7IDf0yFo5Ao-81" source="MetSCnNrg7IDf0yFo5Ao-87" target="MetSCnNrg7IDf0yFo5Ao-85">
                    <mxGeometry relative="1" as="geometry"/>
                </mxCell>
                <mxCell id="MetSCnNrg7IDf0yFo5Ao-98" style="edgeStyle=orthogonalEdgeStyle;rounded=0;orthogonalLoop=1;jettySize=auto;html=1;exitX=0;exitY=0.5;exitDx=0;exitDy=0;entryX=1;entryY=0.5;entryDx=0;entryDy=0;" edge="1" parent="MetSCnNrg7IDf0yFo5Ao-81" source="MetSCnNrg7IDf0yFo5Ao-96" target="MetSCnNrg7IDf0yFo5Ao-87">
                    <mxGeometry relative="1" as="geometry"/>
                </mxCell>
                <mxCell id="MetSCnNrg7IDf0yFo5Ao-99" value="correct" style="text;html=1;align=center;verticalAlign=middle;whiteSpace=wrap;rounded=0;" vertex="1" parent="1">
                    <mxGeometry x="420" y="450" width="100" height="30" as="geometry"/>
                </mxCell>
                <mxCell id="MetSCnNrg7IDf0yFo5Ao-100" value="Security Officer&amp;nbsp;Login" style="text;html=1;align=center;verticalAlign=middle;whiteSpace=wrap;rounded=0;" vertex="1" parent="1">
                    <mxGeometry x="363" y="70" width="138" height="30" as="geometry"/>
                </mxCell>
                <mxCell id="MetSCnNrg7IDf0yFo5Ao-101" value="Security Officer LivePage" style="text;html=1;align=center;verticalAlign=middle;whiteSpace=wrap;rounded=0;" vertex="1" parent="1">
                    <mxGeometry x="356" y="660" width="138" height="30" as="geometry"/>
                </mxCell>
                <mxCell id="MetSCnNrg7IDf0yFo5Ao-102" value="Security Officer DashBoard&amp;nbsp;" style="text;html=1;align=center;verticalAlign=middle;whiteSpace=wrap;rounded=0;" vertex="1" parent="1">
                    <mxGeometry x="1156" y="70" width="170" height="30" as="geometry"/>
                </mxCell>
                <mxCell id="MetSCnNrg7IDf0yFo5Ao-103" value="Security Officer History" style="text;html=1;align=center;verticalAlign=middle;whiteSpace=wrap;rounded=0;" vertex="1" parent="1">
                    <mxGeometry x="1150" y="500" width="170" height="30" as="geometry"/>
                </mxCell>
                <mxCell id="MetSCnNrg7IDf0yFo5Ao-104" value="Security Officer Notification" style="text;html=1;align=center;verticalAlign=middle;whiteSpace=wrap;rounded=0;" vertex="1" parent="1">
                    <mxGeometry x="1982.5" y="70" width="170" height="30" as="geometry"/>
                </mxCell>
                <mxCell id="MetSCnNrg7IDf0yFo5Ao-105" value="Swimlane" style="swimlane;whiteSpace=wrap;html=1;" vertex="1" parent="1">
                    <mxGeometry x="14" y="1270" width="800" height="930" as="geometry"/>
                </mxCell>
                <mxCell id="MetSCnNrg7IDf0yFo5Ao-106" value="Security Officer" style="swimlane;whiteSpace=wrap;html=1;startSize=23;" vertex="1" parent="MetSCnNrg7IDf0yFo5Ao-105">
                    <mxGeometry y="20" width="210" height="910" as="geometry"/>
                </mxCell>
                <mxCell id="MetSCnNrg7IDf0yFo5Ao-107" style="edgeStyle=orthogonalEdgeStyle;rounded=0;orthogonalLoop=1;jettySize=auto;html=1;exitX=0.5;exitY=1;exitDx=0;exitDy=0;entryX=0.5;entryY=0;entryDx=0;entryDy=0;" edge="1" parent="MetSCnNrg7IDf0yFo5Ao-106" source="MetSCnNrg7IDf0yFo5Ao-108" target="MetSCnNrg7IDf0yFo5Ao-109">
                    <mxGeometry relative="1" as="geometry"/>
                </mxCell>
                <mxCell id="MetSCnNrg7IDf0yFo5Ao-108" value="Start" style="rounded=1;whiteSpace=wrap;html=1;" vertex="1" parent="MetSCnNrg7IDf0yFo5Ao-106">
                    <mxGeometry x="30" y="30" width="130" height="60" as="geometry"/>
                </mxCell>
                <mxCell id="MetSCnNrg7IDf0yFo5Ao-109" value="Login" style="rounded=0;whiteSpace=wrap;html=1;" vertex="1" parent="MetSCnNrg7IDf0yFo5Ao-106">
                    <mxGeometry x="35" y="110" width="120" height="60" as="geometry"/>
                </mxCell>
                <mxCell id="MetSCnNrg7IDf0yFo5Ao-110" style="edgeStyle=orthogonalEdgeStyle;rounded=0;orthogonalLoop=1;jettySize=auto;html=1;exitX=0.5;exitY=0;exitDx=0;exitDy=0;entryX=0.5;entryY=1;entryDx=0;entryDy=0;" edge="1" parent="MetSCnNrg7IDf0yFo5Ao-106" source="MetSCnNrg7IDf0yFo5Ao-111" target="MetSCnNrg7IDf0yFo5Ao-109">
                    <mxGeometry relative="1" as="geometry"/>
                </mxCell>
                <mxCell id="MetSCnNrg7IDf0yFo5Ao-111" value="Error alert" style="rounded=0;whiteSpace=wrap;html=1;" vertex="1" parent="MetSCnNrg7IDf0yFo5Ao-106">
                    <mxGeometry x="35" y="210" width="120" height="60" as="geometry"/>
                </mxCell>
                <mxCell id="MetSCnNrg7IDf0yFo5Ao-112" value="Select" style="text;html=1;align=center;verticalAlign=middle;whiteSpace=wrap;rounded=0;" vertex="1" parent="MetSCnNrg7IDf0yFo5Ao-106">
                    <mxGeometry x="103" y="421" width="60" height="30" as="geometry"/>
                </mxCell>
                <mxCell id="MetSCnNrg7IDf0yFo5Ao-113" style="edgeStyle=orthogonalEdgeStyle;rounded=0;orthogonalLoop=1;jettySize=auto;html=1;exitX=0;exitY=0.5;exitDx=0;exitDy=0;entryX=0;entryY=0.5;entryDx=0;entryDy=0;" edge="1" parent="MetSCnNrg7IDf0yFo5Ao-106" source="MetSCnNrg7IDf0yFo5Ao-115" target="MetSCnNrg7IDf0yFo5Ao-120">
                    <mxGeometry relative="1" as="geometry">
                        <Array as="points">
                            <mxPoint x="20" y="386"/>
                            <mxPoint x="20" y="566"/>
                        </Array>
                    </mxGeometry>
                </mxCell>
                <mxCell id="MetSCnNrg7IDf0yFo5Ao-114" style="edgeStyle=orthogonalEdgeStyle;rounded=0;orthogonalLoop=1;jettySize=auto;html=1;exitX=0;exitY=0.5;exitDx=0;exitDy=0;entryX=0;entryY=0.5;entryDx=0;entryDy=0;" edge="1" parent="MetSCnNrg7IDf0yFo5Ao-106" source="MetSCnNrg7IDf0yFo5Ao-115" target="MetSCnNrg7IDf0yFo5Ao-122">
                    <mxGeometry relative="1" as="geometry">
                        <Array as="points">
                            <mxPoint x="20" y="386"/>
                            <mxPoint x="20" y="640"/>
                        </Array>
                    </mxGeometry>
                </mxCell>
                <mxCell id="MetSCnNrg7IDf0yFo5Ao-115" value="Menu" style="rhombus;whiteSpace=wrap;html=1;" vertex="1" parent="MetSCnNrg7IDf0yFo5Ao-106">
                    <mxGeometry x="68" y="346" width="80" height="80" as="geometry"/>
                </mxCell>
                <mxCell id="MetSCnNrg7IDf0yFo5Ao-116" style="edgeStyle=orthogonalEdgeStyle;rounded=0;orthogonalLoop=1;jettySize=auto;html=1;exitX=0.5;exitY=1;exitDx=0;exitDy=0;entryX=0.421;entryY=-0.005;entryDx=0;entryDy=0;entryPerimeter=0;" edge="1" parent="MetSCnNrg7IDf0yFo5Ao-106" source="MetSCnNrg7IDf0yFo5Ao-115" target="MetSCnNrg7IDf0yFo5Ao-119">
                    <mxGeometry relative="1" as="geometry"/>
                </mxCell>
                <mxCell id="MetSCnNrg7IDf0yFo5Ao-117" value="Select" style="text;html=1;align=center;verticalAlign=middle;whiteSpace=wrap;rounded=0;" vertex="1" parent="MetSCnNrg7IDf0yFo5Ao-106">
                    <mxGeometry x="20" y="359" width="60" height="30" as="geometry"/>
                </mxCell>
                <mxCell id="MetSCnNrg7IDf0yFo5Ao-118" style="edgeStyle=orthogonalEdgeStyle;rounded=0;orthogonalLoop=1;jettySize=auto;html=1;exitX=1;exitY=0.5;exitDx=0;exitDy=0;" edge="1" parent="MetSCnNrg7IDf0yFo5Ao-106" source="MetSCnNrg7IDf0yFo5Ao-119" target="MetSCnNrg7IDf0yFo5Ao-121">
                    <mxGeometry relative="1" as="geometry"/>
                </mxCell>
                <mxCell id="MetSCnNrg7IDf0yFo5Ao-119" value="live video" style="rounded=0;whiteSpace=wrap;html=1;" vertex="1" parent="MetSCnNrg7IDf0yFo5Ao-106">
                    <mxGeometry x="53.5" y="466" width="130" height="60" as="geometry"/>
                </mxCell>
                <mxCell id="MetSCnNrg7IDf0yFo5Ao-120" value="Dashboard" style="rounded=0;whiteSpace=wrap;html=1;" vertex="1" parent="MetSCnNrg7IDf0yFo5Ao-106">
                    <mxGeometry x="53.5" y="536" width="130" height="60" as="geometry"/>
                </mxCell>
                <mxCell id="MetSCnNrg7IDf0yFo5Ao-121" value="RealTime" style="rounded=0;whiteSpace=wrap;html=1;" vertex="1" parent="MetSCnNrg7IDf0yFo5Ao-106">
                    <mxGeometry x="253" y="466" width="130" height="60" as="geometry"/>
                </mxCell>
                <mxCell id="MetSCnNrg7IDf0yFo5Ao-122" value="History" style="rounded=0;whiteSpace=wrap;html=1;" vertex="1" parent="MetSCnNrg7IDf0yFo5Ao-106">
                    <mxGeometry x="53.5" y="610" width="130" height="60" as="geometry"/>
                </mxCell>
                <mxCell id="MetSCnNrg7IDf0yFo5Ao-123" value="Web sever" style="swimlane;whiteSpace=wrap;html=1;startSize=23;" vertex="1" parent="MetSCnNrg7IDf0yFo5Ao-105">
                    <mxGeometry x="210" y="20" width="200" height="910" as="geometry"/>
                </mxCell>
                <mxCell id="MetSCnNrg7IDf0yFo5Ao-124" value="Send information for verification" style="rounded=0;whiteSpace=wrap;html=1;" vertex="1" parent="MetSCnNrg7IDf0yFo5Ao-123">
                    <mxGeometry x="35" y="110" width="120" height="60" as="geometry"/>
                </mxCell>
                <mxCell id="MetSCnNrg7IDf0yFo5Ao-125" value="Show DashBoard" style="rounded=0;whiteSpace=wrap;html=1;" vertex="1" parent="MetSCnNrg7IDf0yFo5Ao-123">
                    <mxGeometry x="43" y="536" width="130" height="60" as="geometry"/>
                </mxCell>
                <mxCell id="MetSCnNrg7IDf0yFo5Ao-126" value="Check information" style="rhombus;whiteSpace=wrap;html=1;" vertex="1" parent="MetSCnNrg7IDf0yFo5Ao-123">
                    <mxGeometry x="62.5" y="190" width="75" height="80" as="geometry"/>
                </mxCell>
                <mxCell id="MetSCnNrg7IDf0yFo5Ao-127" value="Select time range" style="rounded=0;whiteSpace=wrap;html=1;" vertex="1" parent="MetSCnNrg7IDf0yFo5Ao-123">
                    <mxGeometry x="43" y="610" width="130" height="60" as="geometry"/>
                </mxCell>
                <mxCell id="MetSCnNrg7IDf0yFo5Ao-128" style="edgeStyle=orthogonalEdgeStyle;rounded=0;orthogonalLoop=1;jettySize=auto;html=1;exitX=0.5;exitY=0;exitDx=0;exitDy=0;entryX=0.5;entryY=1;entryDx=0;entryDy=0;" edge="1" parent="MetSCnNrg7IDf0yFo5Ao-123" source="MetSCnNrg7IDf0yFo5Ao-129" target="MetSCnNrg7IDf0yFo5Ao-130">
                    <mxGeometry relative="1" as="geometry"/>
                </mxCell>
                <mxCell id="MetSCnNrg7IDf0yFo5Ao-129" value="Fetch data by time&lt;div&gt;period&lt;/div&gt;" style="rounded=0;whiteSpace=wrap;html=1;" vertex="1" parent="MetSCnNrg7IDf0yFo5Ao-123">
                    <mxGeometry x="43" y="760" width="130" height="60" as="geometry"/>
                </mxCell>
                <mxCell id="MetSCnNrg7IDf0yFo5Ao-130" value="Display time period" style="rounded=0;whiteSpace=wrap;html=1;" vertex="1" parent="MetSCnNrg7IDf0yFo5Ao-123">
                    <mxGeometry x="43" y="680" width="130" height="60" as="geometry"/>
                </mxCell>
                <mxCell id="MetSCnNrg7IDf0yFo5Ao-131" value="notification" style="rounded=0;whiteSpace=wrap;html=1;" vertex="1" parent="MetSCnNrg7IDf0yFo5Ao-123">
                    <mxGeometry x="43" y="829" width="130" height="60" as="geometry"/>
                </mxCell>
                <mxCell id="MetSCnNrg7IDf0yFo5Ao-132" value="DataBase Sever" style="swimlane;whiteSpace=wrap;html=1;startSize=23;" vertex="1" parent="MetSCnNrg7IDf0yFo5Ao-105">
                    <mxGeometry x="410" y="20" width="200" height="910" as="geometry"/>
                </mxCell>
                <mxCell id="MetSCnNrg7IDf0yFo5Ao-133" style="edgeStyle=orthogonalEdgeStyle;rounded=0;orthogonalLoop=1;jettySize=auto;html=1;exitX=0.5;exitY=1;exitDx=0;exitDy=0;entryX=0.5;entryY=0;entryDx=0;entryDy=0;" edge="1" parent="MetSCnNrg7IDf0yFo5Ao-132" source="MetSCnNrg7IDf0yFo5Ao-134">
                    <mxGeometry relative="1" as="geometry">
                        <mxPoint x="100.5" y="200" as="targetPoint"/>
                    </mxGeometry>
                </mxCell>
                <mxCell id="MetSCnNrg7IDf0yFo5Ao-134" value="Receive requests&amp;nbsp;" style="rounded=0;whiteSpace=wrap;html=1;" vertex="1" parent="MetSCnNrg7IDf0yFo5Ao-132">
                    <mxGeometry x="40" y="110" width="120" height="60" as="geometry"/>
                </mxCell>
                <mxCell id="MetSCnNrg7IDf0yFo5Ao-135" value="&lt;span data-end=&quot;1235&quot; data-start=&quot;1207&quot;&gt;Database&lt;/span&gt;" style="shape=cylinder3;whiteSpace=wrap;html=1;boundedLbl=1;backgroundOutline=1;size=15;" vertex="1" parent="MetSCnNrg7IDf0yFo5Ao-132">
                    <mxGeometry x="73.25" y="755" width="71.5" height="70" as="geometry"/>
                </mxCell>
                <mxCell id="MetSCnNrg7IDf0yFo5Ao-136" value="Database" style="shape=cylinder3;whiteSpace=wrap;html=1;boundedLbl=1;backgroundOutline=1;size=15;" vertex="1" parent="MetSCnNrg7IDf0yFo5Ao-132">
                    <mxGeometry x="73.25" y="526" width="71.5" height="70" as="geometry"/>
                </mxCell>
                <mxCell id="MetSCnNrg7IDf0yFo5Ao-137" value="Send information" style="rounded=0;whiteSpace=wrap;html=1;" vertex="1" parent="MetSCnNrg7IDf0yFo5Ao-132">
                    <mxGeometry x="40" y="200" width="120" height="60" as="geometry"/>
                </mxCell>
                <mxCell id="MetSCnNrg7IDf0yFo5Ao-138" style="edgeStyle=orthogonalEdgeStyle;rounded=0;orthogonalLoop=1;jettySize=auto;html=1;exitX=0.5;exitY=1;exitDx=0;exitDy=0;" edge="1" parent="MetSCnNrg7IDf0yFo5Ao-132" source="MetSCnNrg7IDf0yFo5Ao-139" target="MetSCnNrg7IDf0yFo5Ao-135">
                    <mxGeometry relative="1" as="geometry"/>
                </mxCell>
                <mxCell id="MetSCnNrg7IDf0yFo5Ao-139" value="Request" style="rounded=0;whiteSpace=wrap;html=1;" vertex="1" parent="MetSCnNrg7IDf0yFo5Ao-132">
                    <mxGeometry x="44" y="610" width="130" height="60" as="geometry"/>
                </mxCell>
                <mxCell id="MetSCnNrg7IDf0yFo5Ao-140" value="AI Sever" style="swimlane;whiteSpace=wrap;html=1;startSize=23;" vertex="1" parent="MetSCnNrg7IDf0yFo5Ao-105">
                    <mxGeometry x="610" y="20" width="190" height="910" as="geometry"/>
                </mxCell>
                <mxCell id="MetSCnNrg7IDf0yFo5Ao-141" style="edgeStyle=orthogonalEdgeStyle;rounded=0;orthogonalLoop=1;jettySize=auto;html=1;exitX=0.5;exitY=1;exitDx=0;exitDy=0;entryX=0.5;entryY=0;entryDx=0;entryDy=0;" edge="1" parent="MetSCnNrg7IDf0yFo5Ao-140" source="MetSCnNrg7IDf0yFo5Ao-142" target="MetSCnNrg7IDf0yFo5Ao-143">
                    <mxGeometry relative="1" as="geometry"/>
                </mxCell>
                <mxCell id="MetSCnNrg7IDf0yFo5Ao-142" value="Check the wearing of helmets" style="rounded=0;whiteSpace=wrap;html=1;" vertex="1" parent="MetSCnNrg7IDf0yFo5Ao-140">
                    <mxGeometry x="33" y="556" width="130" height="60" as="geometry"/>
                </mxCell>
                <mxCell id="MetSCnNrg7IDf0yFo5Ao-143" value="people not wearing helmets" style="rounded=0;whiteSpace=wrap;html=1;" vertex="1" parent="MetSCnNrg7IDf0yFo5Ao-140">
                    <mxGeometry x="33" y="636" width="130" height="60" as="geometry"/>
                </mxCell>
                <mxCell id="MetSCnNrg7IDf0yFo5Ao-144" value="detection helmet" style="rounded=0;whiteSpace=wrap;html=1;" vertex="1" parent="MetSCnNrg7IDf0yFo5Ao-140">
                    <mxGeometry x="33" y="466" width="130" height="60" as="geometry"/>
                </mxCell>
                <mxCell id="MetSCnNrg7IDf0yFo5Ao-145" style="edgeStyle=orthogonalEdgeStyle;rounded=0;orthogonalLoop=1;jettySize=auto;html=1;exitX=0.5;exitY=1;exitDx=0;exitDy=0;entryX=0.5;entryY=0;entryDx=0;entryDy=0;" edge="1" parent="MetSCnNrg7IDf0yFo5Ao-140" source="MetSCnNrg7IDf0yFo5Ao-144" target="MetSCnNrg7IDf0yFo5Ao-142">
                    <mxGeometry relative="1" as="geometry"/>
                </mxCell>
                <mxCell id="MetSCnNrg7IDf0yFo5Ao-146" style="edgeStyle=orthogonalEdgeStyle;rounded=0;orthogonalLoop=1;jettySize=auto;html=1;exitX=1;exitY=0.5;exitDx=0;exitDy=0;entryX=0;entryY=0.5;entryDx=0;entryDy=0;" edge="1" parent="MetSCnNrg7IDf0yFo5Ao-105" source="MetSCnNrg7IDf0yFo5Ao-109" target="MetSCnNrg7IDf0yFo5Ao-124">
                    <mxGeometry relative="1" as="geometry">
                        <mxPoint x="241" y="159.8571428571429" as="targetPoint"/>
                    </mxGeometry>
                </mxCell>
                <mxCell id="MetSCnNrg7IDf0yFo5Ao-147" style="edgeStyle=orthogonalEdgeStyle;rounded=0;orthogonalLoop=1;jettySize=auto;html=1;exitX=1;exitY=0.5;exitDx=0;exitDy=0;entryX=0;entryY=0.5;entryDx=0;entryDy=0;" edge="1" parent="MetSCnNrg7IDf0yFo5Ao-105" source="MetSCnNrg7IDf0yFo5Ao-124" target="MetSCnNrg7IDf0yFo5Ao-134">
                    <mxGeometry relative="1" as="geometry"/>
                </mxCell>
                <mxCell id="MetSCnNrg7IDf0yFo5Ao-148" style="edgeStyle=orthogonalEdgeStyle;rounded=0;orthogonalLoop=1;jettySize=auto;html=1;exitX=0;exitY=0.5;exitDx=0;exitDy=0;entryX=1;entryY=0.5;entryDx=0;entryDy=0;" edge="1" parent="MetSCnNrg7IDf0yFo5Ao-105" source="MetSCnNrg7IDf0yFo5Ao-144" target="MetSCnNrg7IDf0yFo5Ao-121">
                    <mxGeometry relative="1" as="geometry"/>
                </mxCell>
                <mxCell id="MetSCnNrg7IDf0yFo5Ao-149" style="edgeStyle=orthogonalEdgeStyle;rounded=0;orthogonalLoop=1;jettySize=auto;html=1;exitX=0;exitY=0.25;exitDx=0;exitDy=0;entryX=1;entryY=0;entryDx=0;entryDy=45;entryPerimeter=0;" edge="1" parent="MetSCnNrg7IDf0yFo5Ao-105" source="MetSCnNrg7IDf0yFo5Ao-142" target="MetSCnNrg7IDf0yFo5Ao-136">
                    <mxGeometry relative="1" as="geometry"/>
                </mxCell>
                <mxCell id="MetSCnNrg7IDf0yFo5Ao-150" style="edgeStyle=orthogonalEdgeStyle;rounded=0;orthogonalLoop=1;jettySize=auto;html=1;exitX=0;exitY=0;exitDx=0;exitDy=45;exitPerimeter=0;entryX=0.978;entryY=0.594;entryDx=0;entryDy=0;entryPerimeter=0;" edge="1" parent="MetSCnNrg7IDf0yFo5Ao-105" source="MetSCnNrg7IDf0yFo5Ao-136" target="MetSCnNrg7IDf0yFo5Ao-125">
                    <mxGeometry relative="1" as="geometry"/>
                </mxCell>
                <mxCell id="MetSCnNrg7IDf0yFo5Ao-151" style="edgeStyle=orthogonalEdgeStyle;rounded=0;orthogonalLoop=1;jettySize=auto;html=1;exitX=0;exitY=0.5;exitDx=0;exitDy=0;entryX=1.011;entryY=0.336;entryDx=0;entryDy=0;entryPerimeter=0;" edge="1" parent="MetSCnNrg7IDf0yFo5Ao-105" source="MetSCnNrg7IDf0yFo5Ao-126" target="MetSCnNrg7IDf0yFo5Ao-111">
                    <mxGeometry relative="1" as="geometry"/>
                </mxCell>
                <mxCell id="MetSCnNrg7IDf0yFo5Ao-152" style="edgeStyle=orthogonalEdgeStyle;rounded=0;orthogonalLoop=1;jettySize=auto;html=1;exitX=0;exitY=0.5;exitDx=0;exitDy=0;entryX=1;entryY=0.5;entryDx=0;entryDy=0;" edge="1" parent="MetSCnNrg7IDf0yFo5Ao-105" source="MetSCnNrg7IDf0yFo5Ao-137" target="MetSCnNrg7IDf0yFo5Ao-126">
                    <mxGeometry relative="1" as="geometry"/>
                </mxCell>
                <mxCell id="MetSCnNrg7IDf0yFo5Ao-153" style="edgeStyle=orthogonalEdgeStyle;rounded=0;orthogonalLoop=1;jettySize=auto;html=1;exitX=0.5;exitY=1;exitDx=0;exitDy=0;entryX=1;entryY=0.5;entryDx=0;entryDy=0;" edge="1" parent="MetSCnNrg7IDf0yFo5Ao-105" source="MetSCnNrg7IDf0yFo5Ao-126" target="MetSCnNrg7IDf0yFo5Ao-115">
                    <mxGeometry relative="1" as="geometry"/>
                </mxCell>
                <mxCell id="MetSCnNrg7IDf0yFo5Ao-154" style="edgeStyle=orthogonalEdgeStyle;rounded=0;orthogonalLoop=1;jettySize=auto;html=1;exitX=1;exitY=0.5;exitDx=0;exitDy=0;entryX=0;entryY=0.5;entryDx=0;entryDy=0;" edge="1" parent="MetSCnNrg7IDf0yFo5Ao-105" source="MetSCnNrg7IDf0yFo5Ao-122" target="MetSCnNrg7IDf0yFo5Ao-127">
                    <mxGeometry relative="1" as="geometry"/>
                </mxCell>
                <mxCell id="MetSCnNrg7IDf0yFo5Ao-155" style="edgeStyle=orthogonalEdgeStyle;rounded=0;orthogonalLoop=1;jettySize=auto;html=1;entryX=0;entryY=0.5;entryDx=0;entryDy=0;" edge="1" parent="MetSCnNrg7IDf0yFo5Ao-105" source="MetSCnNrg7IDf0yFo5Ao-120" target="MetSCnNrg7IDf0yFo5Ao-125">
                    <mxGeometry relative="1" as="geometry"/>
                </mxCell>
                <mxCell id="MetSCnNrg7IDf0yFo5Ao-156" style="edgeStyle=orthogonalEdgeStyle;rounded=0;orthogonalLoop=1;jettySize=auto;html=1;exitX=1;exitY=0.5;exitDx=0;exitDy=0;entryX=0;entryY=0.5;entryDx=0;entryDy=0;" edge="1" parent="MetSCnNrg7IDf0yFo5Ao-105" source="MetSCnNrg7IDf0yFo5Ao-127" target="MetSCnNrg7IDf0yFo5Ao-139">
                    <mxGeometry relative="1" as="geometry"/>
                </mxCell>
                <mxCell id="MetSCnNrg7IDf0yFo5Ao-157" value="" style="edgeStyle=orthogonalEdgeStyle;rounded=0;orthogonalLoop=1;jettySize=auto;html=1;" edge="1" parent="MetSCnNrg7IDf0yFo5Ao-105" source="MetSCnNrg7IDf0yFo5Ao-135" target="MetSCnNrg7IDf0yFo5Ao-129">
                    <mxGeometry relative="1" as="geometry"/>
                </mxCell>
                <mxCell id="MetSCnNrg7IDf0yFo5Ao-158" value="&lt;span style=&quot;font-weight: 700;&quot;&gt;&lt;font style=&quot;font-size: 23px;&quot;&gt;Security Officer&lt;/font&gt;&lt;/span&gt;" style="text;html=1;align=center;verticalAlign=middle;whiteSpace=wrap;rounded=0;fontSize=21;" vertex="1" parent="1">
                    <mxGeometry x="304" y="1220" width="256" height="30" as="geometry"/>
                </mxCell>
                <mxCell id="MetSCnNrg7IDf0yFo5Ao-159" value="No : ไม่พบข้อมูล" style="text;html=1;align=center;verticalAlign=middle;whiteSpace=wrap;rounded=0;" vertex="1" parent="1">
                    <mxGeometry x="185" y="1493" width="119" height="30" as="geometry"/>
                </mxCell>
                <mxCell id="MetSCnNrg7IDf0yFo5Ao-160" value="Yes : ข้อมูลถูกต้อง" style="text;html=1;align=center;verticalAlign=middle;whiteSpace=wrap;rounded=0;" vertex="1" parent="1">
                    <mxGeometry x="331" y="1551" width="100" height="30" as="geometry"/>
                </mxCell>
                <mxCell id="MetSCnNrg7IDf0yFo5Ao-161" value="End" style="rounded=1;whiteSpace=wrap;html=1;" vertex="1" parent="1">
                    <mxGeometry x="67.5" y="2123" width="120" height="60" as="geometry"/>
                </mxCell>
                <mxCell id="MetSCnNrg7IDf0yFo5Ao-162" value="Violations found" style="rounded=0;whiteSpace=wrap;html=1;" vertex="1" parent="1">
                    <mxGeometry x="657" y="2119" width="130" height="60" as="geometry"/>
                </mxCell>
                <mxCell id="MetSCnNrg7IDf0yFo5Ao-163" style="edgeStyle=orthogonalEdgeStyle;rounded=0;orthogonalLoop=1;jettySize=auto;html=1;exitX=0;exitY=0.5;exitDx=0;exitDy=0;entryX=1;entryY=0.5;entryDx=0;entryDy=0;" edge="1" parent="1" source="MetSCnNrg7IDf0yFo5Ao-162" target="MetSCnNrg7IDf0yFo5Ao-131">
                    <mxGeometry relative="1" as="geometry"/>
                </mxCell>
                <mxCell id="MetSCnNrg7IDf0yFo5Ao-164" style="edgeStyle=orthogonalEdgeStyle;rounded=0;orthogonalLoop=1;jettySize=auto;html=1;exitX=0;exitY=0.5;exitDx=0;exitDy=0;entryX=0.971;entryY=0.433;entryDx=0;entryDy=0;entryPerimeter=0;" edge="1" parent="1" source="MetSCnNrg7IDf0yFo5Ao-131" target="MetSCnNrg7IDf0yFo5Ao-161">
                    <mxGeometry relative="1" as="geometry">
                        <mxPoint x="197.5" y="2149" as="targetPoint"/>
                    </mxGeometry>
                </mxCell>
                <mxCell id="MetSCnNrg7IDf0yFo5Ao-165" value="" style="endArrow=none;html=1;rounded=0;" edge="1" parent="1">
                    <mxGeometry width="50" height="50" relative="1" as="geometry">
                        <mxPoint x="538" y="2139" as="sourcePoint"/>
                        <mxPoint x="538" y="2139" as="targetPoint"/>
                    </mxGeometry>
                </mxCell>
                <mxCell id="MetSCnNrg7IDf0yFo5Ao-166" style="edgeStyle=orthogonalEdgeStyle;rounded=0;orthogonalLoop=1;jettySize=auto;html=1;exitX=0.5;exitY=1;exitDx=0;exitDy=0;entryX=0.5;entryY=0;entryDx=0;entryDy=0;" edge="1" parent="1" source="MetSCnNrg7IDf0yFo5Ao-143" target="MetSCnNrg7IDf0yFo5Ao-162">
                    <mxGeometry relative="1" as="geometry"/>
                </mxCell>
                <mxCell id="MetSCnNrg7IDf0yFo5Ao-167" style="edgeStyle=orthogonalEdgeStyle;rounded=0;orthogonalLoop=1;jettySize=auto;html=1;exitX=0;exitY=0.5;exitDx=0;exitDy=0;entryX=0.5;entryY=0;entryDx=0;entryDy=0;" edge="1" parent="1" source="MetSCnNrg7IDf0yFo5Ao-130" target="MetSCnNrg7IDf0yFo5Ao-161">
                    <mxGeometry relative="1" as="geometry"/>
                </mxCell>
            </root>
        </mxGraphModel>
    </diagram>
</mxfile>